<svg width="18" height="18" viewBox="0 0 18 18" fill="none" xmlns="http://www.w3.org/2000/svg">
<path d="M6.57009 9.03258C6.57009 9.40862 6.57616 9.41469 6.94613 9.41469C7.38889 9.42075 7.83771 9.36616 8.26834 9.54206C8.54734 9.65729 8.65652 9.57845 8.65652 9.26912C8.65652 8.35934 8.65652 7.44957 8.65652 6.53979C8.65652 6.15768 8.77175 6.04851 9.15993 6.04851C9.9484 6.04851 10.7308 6.04851 11.5193 6.04851C11.9014 6.04851 12.0166 6.16375 12.0166 6.55192C12.0166 7.69824 12.0227 8.83849 12.0106 9.98481C12.0106 10.1668 12.0712 10.2699 12.241 10.3184C12.4169 10.3669 12.5807 10.4579 12.7081 10.5853C12.8112 10.6884 12.89 10.6702 12.9992 10.5974C13.3995 10.3184 13.8059 10.0394 14.2122 9.76647C14.3335 9.68762 14.376 9.59664 14.376 9.45108C14.3699 8.53523 14.3699 7.61939 14.3699 6.70355C14.3699 5.79377 14.3699 4.88399 14.3699 3.97421C14.3699 3.82258 14.3335 3.70735 14.2183 3.59211C13.078 2.45185 11.9378 1.30553 10.7915 0.159211C10.5792 -0.0530704 10.5428 -0.0530704 10.3366 0.159211C9.14173 1.36012 7.94082 2.56103 6.73992 3.75587C6.61861 3.87717 6.56403 3.99847 6.56403 4.1683C6.57009 5.79377 6.57009 7.41317 6.57009 9.03258Z" fill="white"/>
<path d="M17.5239 8.77178C16.8991 8.45032 16.1228 8.60802 15.7104 9.21453C15.2858 9.84531 14.7521 10.3305 14.1092 10.7187C13.8787 10.8582 13.6664 11.0341 13.4359 11.1736C13.254 11.2828 13.1873 11.4162 13.1933 11.6345C13.2115 12.3624 12.6475 13.0174 11.9257 13.0356C10.7794 13.072 9.62699 13.0477 8.48067 13.0477C8.25019 13.0477 8.09856 12.8476 8.12282 12.6414C8.15315 12.4412 8.30478 12.326 8.55345 12.326C9.61486 12.326 10.6702 12.326 11.7316 12.326C12.1683 12.326 12.4776 12.0409 12.4837 11.6467C12.4837 11.2464 12.1804 10.9613 11.7437 10.9613C11.1312 10.9613 10.5186 10.9431 9.90599 10.9674C9.29947 10.9916 8.77786 10.8218 8.32904 10.4154C8.11069 10.2214 7.84989 10.1425 7.55876 10.1425C7.06748 10.1486 6.5762 10.1425 6.08492 10.1425C5.46627 10.1486 4.90828 10.3487 4.44732 10.7612C3.96817 11.1857 3.50115 11.6345 3.02807 12.0652C2.8825 12.1986 2.88857 12.3078 3.022 12.4473C3.87113 13.3085 4.72025 14.1759 5.56332 15.0432C5.67855 15.1645 5.78773 15.1948 5.93936 15.1038C6.24262 14.9279 6.57014 14.8673 6.91585 14.8673C7.71646 14.8734 8.51706 14.8673 9.31767 14.8673C10.1243 14.8673 10.9371 14.8673 11.7437 14.8673C12.3867 14.8673 12.9446 14.6489 13.442 14.2244C15.1342 12.7687 16.5231 11.0644 17.6452 9.14175C17.7422 8.9598 17.724 8.88095 17.5239 8.77178Z" fill="white"/>
<path d="M5.77557 16.3169C4.44123 14.9583 3.10689 13.5936 1.77862 12.2289C1.63305 12.0773 1.51781 12.0591 1.36618 12.2168C0.965881 12.6171 0.547383 13.0053 0.141016 13.3995C-0.0470052 13.5815 -0.0470052 13.6361 0.141016 13.8241C1.51781 15.1766 2.88855 16.5291 4.26534 17.8817C4.41697 18.0333 4.52615 18.0454 4.67778 17.8817C5.04169 17.4874 5.41773 17.1053 5.7877 16.7172C5.83623 16.6626 5.90294 16.6141 5.89688 16.5231C5.90294 16.426 5.83623 16.3715 5.77557 16.3169ZM2.54889 14.5944C2.39726 14.7339 2.19711 14.7278 2.02122 14.564C1.78468 14.3396 1.56027 14.1091 1.32979 13.8726C1.21455 13.7574 1.1721 13.6179 1.24488 13.4602C1.30553 13.3207 1.4147 13.2539 1.54207 13.2418C1.67551 13.2358 1.76649 13.2843 1.84533 13.3631C2.07581 13.5936 2.30629 13.818 2.5307 14.0546C2.70659 14.2304 2.70659 14.4488 2.54889 14.5944Z" fill="white"/>
<path d="M11.0037 6.77633C10.5549 6.7824 10.1122 6.78846 9.66333 6.77633C9.44498 6.77027 9.3722 6.86124 9.3722 7.07352C9.38433 7.57087 9.3722 8.07428 9.3722 8.57163C9.3722 9.02045 9.36614 9.46321 9.3722 9.91203C9.37827 10.1728 9.43892 10.2335 9.69366 10.2335C10.1304 10.2335 10.5731 10.2274 11.0098 10.2335C11.2039 10.2335 11.2767 10.1546 11.2767 9.96055C11.2706 9.47534 11.2767 8.99012 11.2767 8.50491C11.2767 8.01969 11.2706 7.53448 11.2767 7.04926C11.2949 6.84911 11.21 6.77633 11.0037 6.77633Z" fill="white"/>
</svg>
