<svg width="18" height="21" viewBox="0 0 18 21" fill="none" xmlns="http://www.w3.org/2000/svg">
<path fill-rule="evenodd" clip-rule="evenodd" d="M17.6765 17.8371C17.1209 19.6626 14.9441 20.5734 13.3889 20.4216C11.2648 20.214 8.95363 18.9957 7.19921 17.6541C4.62039 15.6819 2.20477 12.6316 0.797162 9.39437C-0.197646 7.10692 -0.420847 4.29399 1.05876 2.20894C1.60597 1.43824 2.19877 1.02694 3.08678 0.978935C4.32039 0.914061 4.49319 1.67698 4.9168 2.86547C5.2324 3.75424 5.6536 4.66118 5.8888 5.58239C6.32921 7.30154 4.78959 7.3729 4.59519 8.77807C4.47519 9.66425 5.4676 10.8527 5.9164 11.4846C6.78147 12.7152 7.84099 13.7708 9.04603 14.6024C9.73003 15.0682 10.8316 15.9077 11.614 15.4445C12.8189 14.7309 12.7061 12.5343 14.3897 13.2777C15.2621 13.6618 16.1069 14.2158 16.9397 14.7011C18.2273 15.4497 18.1673 16.2256 17.6765 17.8371C18.0437 16.633 17.3093 19.0411 17.6765 17.8371Z" fill="#B48D4E"/>
</svg>
