<svg width="18" height="18" viewBox="0 0 18 18" fill="none" xmlns="http://www.w3.org/2000/svg">
<path d="M8.50722 9.65535C8.27699 9.42513 8.16956 9.16421 8.16956 8.83678C8.17467 5.96668 8.17467 3.09657 8.17467 0.226463C8.17467 0.180418 8.16956 0.134373 8.17467 0.0934451C8.1849 0.00135605 8.14909 -0.00376 8.06723 0.00135605C7.64772 0.0422845 7.23332 0.113909 6.82403 0.21623C2.17865 1.38269 -0.737497 5.96668 0.162928 10.6837C1.14521 15.8509 6.37894 19.0894 11.4234 17.662C12.6512 17.3141 13.7563 16.736 14.7795 15.8918C14.7079 15.8355 14.6414 15.7997 14.5851 15.7435C12.5591 13.7124 10.5332 11.6813 8.50722 9.65535Z" fill="white"/>
<path d="M9.9857 8.15635C11.2852 8.15123 12.5898 8.15123 13.8893 8.15123C15.1836 8.15123 16.478 8.15123 17.7723 8.15123C17.8951 8.15123 17.9565 8.15635 17.9412 7.98752C17.803 6.75966 17.45 5.59832 16.8259 4.5393C15.2808 1.91476 12.9991 0.400406 9.97547 0.00647017C9.80664 -0.0139941 9.80664 0.0422826 9.80664 0.170184C9.81176 2.76914 9.81176 5.37321 9.80664 7.97217C9.80664 8.12053 9.83734 8.15635 9.9857 8.15635Z" fill="white"/>
<path d="M17.7519 9.78837C15.5623 9.79349 13.3777 9.79349 11.188 9.79349C11.1266 9.79349 11.0652 9.79349 11.009 9.79349C12.6512 11.446 14.2832 13.0831 15.9255 14.7305C17.0459 13.3491 17.7264 11.7734 17.931 9.99813C17.9515 9.83441 17.931 9.78837 17.7519 9.78837Z" fill="white"/>
</svg>
