<svg width="17" height="12" viewBox="0 0 17 12" fill="none" xmlns="http://www.w3.org/2000/svg">
<path d="M0.000469214 3.39258C0.993795 3.99693 1.98806 4.60033 2.98092 5.20562C4.50633 6.13607 6.03315 7.06511 7.55481 8.00213C7.94989 8.24519 8.31916 8.24003 8.7133 7.99885C11.1893 6.48376 13.6691 4.97571 16.1475 3.46484C16.1832 3.44325 16.2198 3.42355 16.263 3.39915C16.2958 3.44888 16.2794 3.5019 16.2794 3.5507C16.2803 5.53782 16.2808 7.52541 16.2798 9.51253C16.2794 10.9455 15.2457 11.9947 13.8113 11.997C10.0327 12.0022 6.25415 11.9956 2.47604 12.0003C1.08998 12.0022 0.149679 10.9896 0.0248683 9.91559C0.0234607 9.90245 0.00844585 9.89119 0 9.87899C0 7.71685 0 5.55472 0 3.39258H0.000469214Z" fill="#B48D4E"/>
<path d="M8.1509 0.000811775C10.0315 0.000811775 11.9121 -0.00153427 13.7927 0.00175022C14.7509 0.00362708 15.4795 0.416066 15.9633 1.24798C16.0675 1.42675 16.1881 1.62335 16.1735 1.82042C16.1571 2.04095 15.892 2.07004 15.7325 2.16811C13.2466 3.6954 10.7555 5.21378 8.26773 6.73778C8.17529 6.79456 8.11617 6.78799 8.02843 6.7345C5.42148 5.14246 2.81265 3.55229 0.202413 1.96541C0.104347 1.90582 0.0808861 1.85327 0.113262 1.73972C0.410274 0.691495 1.34495 0.00268855 2.49311 0.00128091C4.37889 -0.000595945 6.26513 0.000811775 8.1509 0.000811775Z" fill="#B48D4E"/>
</svg>
