<svg width="99" height="99" viewBox="0 0 99 99" fill="none" xmlns="http://www.w3.org/2000/svg">
<g clip-path="url(#clip0_1458_66)">
<path d="M14.584 55.9488C12.6111 54.65 12.1451 53.2223 13.2158 51.4873C13.4637 51.874 13.6917 52.2309 13.9198 52.5878C13.7611 51.3584 13.6223 50.129 14.7228 49.2764C15.7143 48.513 16.8247 47.938 18.1334 48.0272C19.0256 48.0867 19.9179 48.3544 20.721 48.6518C21.7422 49.0286 22.694 49.0781 23.725 49.0087C24.0919 48.979 24.5876 48.751 24.7264 49.3855C24.8751 50.0993 25.2915 50.8032 24.9247 51.5369C24.766 51.8641 24.5083 51.5765 24.3298 51.4377C23.8936 51.1007 23.4276 51.0511 22.9418 51.2989C22.5651 51.4972 22.3866 51.8541 22.5353 52.2309C22.7039 52.677 23.0112 52.2606 23.2492 52.2507C23.616 52.2507 23.9927 52.2111 24.3496 52.2805C25.8765 52.5779 26.1838 52.3994 26.62 50.8528C27.1257 51.3981 27.1058 51.9731 26.6795 52.5283C26.2929 53.0439 25.7674 53.143 25.1329 53.0339C24.4587 52.915 23.725 52.4292 23.0707 53.262C23.5962 53.6288 24.1018 53.3215 24.5975 53.3314C24.8949 54.3327 24.6471 54.9573 23.5168 54.6599C22.7634 54.4616 22.0495 55.3836 21.3159 54.6202C21.1572 54.4517 21.296 55.4134 20.6714 55.0069C20.3046 54.769 20.1757 54.2336 19.9279 54.1642C19.0157 53.9064 18.9562 53.9758 18.8769 53.4008C18.8373 53.0835 18.7084 52.8654 18.4804 52.6869C18.1829 53.9956 18.7084 54.8284 20.2352 55.344C21.1176 55.6414 21.9603 55.919 22.3569 56.8708C22.5651 57.0691 22.7931 57.3368 22.5849 57.5945C22.1189 58.1597 22.4164 58.6256 22.6642 59.1213C22.6642 59.7955 22.7039 60.4697 22.6345 61.1439C22.5849 61.4314 22.4461 61.6792 22.2974 61.9271C22.0396 62.3633 22.1982 62.6211 22.6444 62.7599C23.6259 63.0673 24.6173 63.3349 25.6385 63.4837C25.926 63.5233 26.3523 63.5431 26.4317 63.2953C26.8976 61.9767 28.474 61.1934 28.1964 59.5179C28.0973 58.9131 28.2559 58.3084 28.3749 57.7135C28.3749 57.545 28.1072 57.7135 28.2757 57.6937C28.3451 57.6937 28.3451 57.7234 28.3451 57.7829C28.365 57.9614 28.3352 58.1299 28.2063 58.239C26.62 59.5278 25.0337 60.7969 22.8625 60.9059C22.4064 60.2714 22.9517 59.4683 22.5254 58.8338C22.1982 58.0506 22.7832 57.3963 22.8228 56.6725C23.735 56.6229 24.6173 56.4048 25.4601 56.0578C26.3623 55.691 27.1851 55.2647 27.086 54.0452C27.0563 53.7081 27.2149 53.2521 27.4528 53.0141C28.3451 52.102 28.6723 51.0808 28.593 49.8019C28.5335 48.8303 29.4357 49.3062 29.9116 49.2566C30.3379 49.207 30.9923 48.9988 30.9625 49.8514C30.9625 50.0596 30.9625 50.2678 30.9625 50.4661C30.9625 59.5477 30.9526 68.6292 30.9823 77.7107C30.9823 78.6228 30.8237 78.9897 29.7926 78.9996C28.702 78.9996 28.5236 78.6129 28.5335 77.6413C28.593 74.092 28.5632 70.5427 28.5533 66.9933C28.5533 66.5472 28.6525 66.0812 28.4046 65.5855C27.7007 66.0812 26.4118 65.3674 26.164 66.7752C26.1541 66.8347 25.8665 66.8644 25.7079 66.8644C25.2221 66.8843 24.4785 66.9735 24.2902 66.914C23.1401 66.567 21.9603 66.8149 20.8201 66.5769C20.5128 66.5174 20.1559 65.0402 19.6701 66.4778C19.6304 66.6067 18.9761 66.3886 18.8373 66.1407C18.3118 65.2286 17.2411 64.8915 16.6859 63.91C17.1122 65.1988 16.3389 65.407 15.4168 65.6252C14.6633 65.8036 13.8999 66.0316 13.2059 66.6364C13.7017 66.8843 14.1577 67.0826 14.584 67.3403C16.5372 68.5499 16.9238 70.4039 15.625 72.2975C15.4862 72.4958 15.278 72.6643 15.1789 72.8824C14.8517 73.5765 13.434 73.8243 14.0387 74.7959C14.7823 75.9856 15.3871 77.5323 17.2807 77.453C18.2226 77.4133 18.867 78.0181 19.4123 78.841C17.479 78.5931 15.5854 79.2772 13.5827 78.484C12.2641 77.9685 11.5502 77.0465 10.8364 76.1145C10.2118 75.3015 10.6877 74.2209 11.0843 73.2889C11.3123 72.7436 11.8477 72.0496 10.7274 71.7423C10.192 71.5936 10.5192 71.2367 10.648 70.9591C10.995 70.1957 11.2429 69.4223 11.114 68.5499C10.8067 68.649 10.9157 68.9266 10.8761 69.1051C10.3903 71.544 8.99234 72.8824 6.45427 73.1997C3.48989 73.5765 3.4304 73.864 4.84815 76.4813C5.25464 77.2348 5.69087 77.5818 6.57324 77.4331C7.31682 77.3042 8.06039 77.4728 8.59577 78.1073C8.7544 78.2957 8.97251 78.484 8.86346 78.7517C8.74448 79.0492 8.43714 78.9302 8.20911 78.9302C6.20641 78.9004 4.1938 79.1186 2.21094 78.603C2.03248 78.5534 1.90359 78.5039 1.85402 78.375C1.37813 77.096 0.29747 76.0352 0.456099 74.5282C0.456099 74.439 0.327213 74.3399 0.257812 74.2506C0.257812 73.7549 0.257812 73.2592 0.257812 72.7635C1.14019 72.3173 2.02256 71.8811 2.89503 71.435C3.54937 71.1078 4.25329 70.8599 4.45158 69.9974C4.58046 69.4422 5.04644 68.8671 4.95721 68.3714C4.83824 67.7072 4.00543 68.0839 3.50971 67.8559C2.39931 67.3403 1.76479 66.0713 2.08205 64.6436C2.38939 63.2457 3.31143 62.3534 4.55072 61.7288C5.76027 61.1141 7.03922 60.6085 7.94142 59.5179C8.53628 58.7942 8.8238 58.0308 8.38757 57.1286C8.23885 56.8113 8.00091 56.5337 7.63408 56.613C6.91033 56.7617 6.20641 57.5648 6.0577 57.8721C5.25464 59.5377 3.11314 60.0236 1.44753 58.5067C2.81571 58.8338 3.33126 58.1002 3.66834 57.1087C3.81706 56.6824 3.9856 56.2561 4.15415 55.8397C4.53089 54.9078 5.08609 54.184 6.20641 54.1444C7.36639 54.1047 8.32808 54.4715 8.94277 55.4927C10.0928 57.3963 9.63677 59.1213 8.20911 60.7473C8.98243 61.1042 9.19063 60.3904 9.60703 60.1227C9.53433 60.9291 8.72466 61.3521 7.17802 61.3917C7.56137 61.6627 8.15623 61.7718 8.9626 61.7189C8.10997 62.9582 6.92025 62.0659 5.59172 61.9668C6.2659 62.6608 6.72196 63.0772 7.53493 62.869C6.69222 63.6522 6.67239 63.6522 5.80984 63.325C4.11449 62.6806 3.04374 63.4737 3.04374 65.4566C3.53946 65.2881 3.96577 64.8419 4.57055 65.179C4.10457 65.3674 3.58903 65.5458 3.5692 66.1308C3.5692 66.4877 3.78732 66.7455 4.16406 66.8149C4.74901 66.9239 5.29429 66.7752 5.58181 66.2696C6.63273 64.4057 8.24877 63.1763 10.0333 62.1056C10.4398 61.8577 10.9256 61.471 11.0446 61.0546C11.5602 59.2998 12.5912 59.4089 13.8603 60.1227C15.0599 60.2218 16.2496 60.3309 17.3402 60.9258C16.5173 60.3408 15.4168 60.4994 14.6138 59.8847C11.3619 58.814 10.7472 57.2971 12.1054 53.0637C12.4128 54.6698 13.1762 55.6117 14.3857 56.147C14.703 56.2858 15.0599 56.3156 15.2086 56.4048C15.0698 56.3552 14.7922 56.2065 14.5939 55.9388L14.584 55.9488Z" fill="#B38C4E"/>
<path d="M84.0336 60.3806C85.1837 60.3806 86.2545 59.409 87.1666 59.5577C87.9102 59.6767 88.1184 61.3224 89.0106 61.9669C89.4766 62.304 89.9327 62.6807 90.4383 62.9385C91.5388 63.5135 92.3716 64.3265 93.0061 65.3774C93.1945 65.6947 93.4324 65.9822 93.6605 66.2796C94.057 66.7852 94.5825 66.9637 95.1972 66.7852C95.5045 66.696 95.6533 66.4581 95.6533 66.1309C95.6632 65.427 95.0386 65.3972 94.5825 65.1692C95.1377 64.8916 95.5838 65.2188 96.0994 65.3179C96.4365 64.3364 95.7921 63.7713 95.2071 63.2062C94.6816 62.7005 94.1562 62.9583 93.6208 63.2359C93.0061 63.5532 92.3914 63.7514 91.747 62.9682C92.4212 62.879 93.0458 62.7898 93.5118 61.9669C92.3121 62.1156 91.1323 62.8988 90.24 61.6694C90.7952 61.4414 91.5487 62.185 92.1138 61.372C91.172 61.1737 89.8335 61.9173 89.5262 60.1625C90.0913 60.3508 90.2995 61.1142 91.0034 60.7276C90.2301 59.7163 89.546 58.6456 89.6947 57.2377C89.8633 55.7407 90.7159 54.5609 92.0345 54.2139C93.3928 53.8569 94.3743 54.2932 94.9791 55.5721C95.2269 56.0877 95.4451 56.633 95.6235 57.1782C95.9408 58.1201 96.4464 58.7844 97.8344 58.477C96.2679 60.0137 94.8006 59.29 93.363 58.5861C93.363 58.1201 93.363 58.13 92.5203 57.6541C92.4212 57.5946 92.4113 57.3567 92.3617 57.208C92.2229 56.8312 91.9849 56.5437 91.5487 56.5735C91.0629 56.6131 90.8448 56.98 90.7357 57.3964C90.4879 58.3382 90.8845 59.0818 91.519 59.7361C92.4608 60.7177 93.71 61.1836 94.8799 61.7983C96.3968 62.6014 97.2891 63.7614 97.1801 65.5559C97.0809 67.043 96.5555 67.7668 95.0386 67.9551C94.1165 68.0642 94.2355 68.3616 94.4338 69.0259C94.8105 70.2949 95.4748 71.207 96.7934 71.6234C97.3387 71.792 97.8245 72.139 98.3301 72.4166C99.0043 72.7735 99.272 73.2296 98.9349 74.0326C98.6573 74.7068 98.5681 75.4504 98.3995 76.1741C97.993 77.9983 96.952 78.8807 95.0881 78.9105C93.5217 78.9402 91.9552 78.9105 90.24 78.9105C90.6069 77.691 91.4496 77.4233 92.4807 77.3539C92.9665 77.3242 93.5712 77.7802 93.948 77.1457C94.4933 76.2237 95.1179 75.3314 95.3162 74.2507C95.3955 73.8343 94.9692 73.7352 94.6916 73.5964C93.9381 73.2196 93.1053 73.1403 92.2923 73.0313C90.9935 72.8627 89.9327 72.3373 89.1792 71.2467C88.3563 70.5428 88.3266 69.5018 88.1878 68.6194C87.9994 69.6703 89.0503 70.5527 88.6934 71.7127C87.9597 71.8019 87.6524 72.1191 87.9994 72.8726C88.2175 73.3584 88.4158 73.8641 88.5744 74.3697C88.8421 75.2719 87.6821 77.691 86.8592 78.0182C84.5194 78.9402 83.0026 79.1088 79.83 78.7915C80.3455 77.8496 81.1287 77.463 82.1103 77.3936C83.1513 77.3143 85.1738 75.5396 85.3919 74.568C85.4712 74.2012 85.2333 74.0425 85.0449 73.8442C84.5988 73.3584 84.1031 72.9123 83.7263 72.3769C82.2392 70.3147 82.7051 68.3715 84.9557 67.1521C85.2829 66.9736 85.6199 66.8348 85.9868 66.6563C85.4712 65.9326 84.6483 65.8335 83.9246 65.6352C82.9629 65.3774 82.1995 65.0998 82.5862 63.801C81.5749 64.8519 80.8016 65.9921 79.5127 66.5374C79.1657 66.1309 79.6713 65.8335 79.4235 65.4964C79.364 65.5856 79.3045 65.655 79.245 65.7343C78.789 66.3986 77.8471 67.043 77.4208 66.696C76.5483 65.9524 76.122 67.0926 75.5668 66.8645C74.615 66.4779 73.2865 67.5288 72.5925 65.9723C72.3843 65.5063 71.3334 65.9227 70.6394 65.3377C70.6394 69.4324 70.6096 73.3386 70.6592 77.2449C70.6691 78.1669 70.4312 78.4346 69.4893 78.4346C68.5475 78.4346 68.3293 78.1471 68.3293 77.2349C68.3591 68.1138 68.3591 59.0025 68.3293 49.8813C68.3293 49.0187 68.4582 48.6618 69.4497 48.6519C70.4808 48.6519 70.7286 49.0088 70.6394 49.9309C70.5402 50.9223 70.5799 51.8642 71.5019 52.578C71.8192 52.8258 72.077 53.3811 72.0571 53.7776C71.9679 55.2945 73.0387 55.6911 74.1193 56.1571C74.9025 56.4942 75.8048 56.3851 76.5483 56.861C76.8358 58.1697 76.8854 59.4585 76.1914 60.6681C73.9904 60.6483 71.0558 58.943 70.9071 57.674C70.3221 59.8452 71.6606 61.4513 72.7214 63.1467C72.8602 63.3747 73.108 63.4639 73.3658 63.454C74.5357 63.4144 75.6263 63.0277 76.697 62.6014C77.044 62.4626 77.0143 62.1652 76.8755 61.8677C76.6871 61.4612 76.4789 61.0448 76.5384 60.5689C76.3302 59.3891 77.1828 58.2787 76.7764 57.089C77.0738 55.9885 77.9562 55.6217 78.9377 55.3044C80.5141 54.7988 81.0593 53.9263 80.7024 52.5978C80.4347 52.6672 80.3455 52.8853 80.3059 53.1034C80.0183 54.5906 79.5524 54.6005 77.9363 54.6897C77.2027 54.7294 76.5186 54.3824 75.7651 54.6104C74.6943 54.9277 74.3573 54.3626 74.6547 53.3216C75.1306 53.2621 75.6461 53.619 76.1617 53.2125C75.5271 52.4491 74.7935 52.8655 74.1193 52.9944C73.3857 53.1332 72.8106 52.9647 72.414 52.3202C72.077 51.765 72.1761 51.2495 72.6619 50.724C72.9593 52.3103 73.3559 52.5978 74.8331 52.231C75.5073 52.0624 76.1022 52.2112 76.6871 52.5185C76.935 51.8344 76.6871 51.4478 76.2013 51.19C75.7155 50.9322 75.3289 51.071 74.4465 51.7254C73.7227 50.8232 74.4465 50.0102 74.5952 49.1575C74.6349 48.9593 74.8034 48.87 74.962 48.9196C76.6376 49.3459 78.1644 48.4933 79.7804 48.3941C81.1287 48.3743 82.3383 48.8205 83.528 49.4054C82.8043 48.9593 81.9913 48.7511 81.1783 48.5429C80.8511 48.4635 80.5041 48.4536 80.5934 47.9678C81.6443 47.7993 82.5961 48.1265 83.528 48.5825C85.154 49.3757 85.6398 50.3572 85.2531 52.1219C84.9755 53.0935 84.2022 53.5397 83.3694 53.9263C83.2207 54.0057 83.4586 54.1445 83.3496 54.0156C84.1625 53.5992 84.807 52.9647 85.4514 52.34C85.61 52.0624 85.7786 51.7749 85.9868 51.4081C86.8097 52.2211 86.4924 53.1629 86.4428 54.0552C86.2941 55.2747 85.2531 55.6514 84.4897 56.167C85.3721 55.8398 85.9967 55.0268 86.7204 54.3427C86.8493 54.0552 86.9881 53.7578 87.1269 53.4405C88.6736 57.1386 87.5731 59.2503 84.6186 59.8155C84.2617 59.8849 83.9048 60.0038 83.5478 60.103C83.1414 60.3905 82.6754 60.45 82.4374 60.5491C82.7944 60.3409 83.419 60.4004 84.0237 60.3112L84.0336 60.3806Z" fill="#B38C4E"/>
<path d="M61.449 57.2766C61.449 63.8795 61.449 70.4824 61.449 77.0854C61.449 77.8885 61.4986 78.4932 60.3386 78.4536C59.3274 78.4139 59.02 78.176 59.02 77.135C59.0498 63.8498 59.0597 50.5645 59.02 37.2694C59.02 36.2284 59.3869 36.0698 60.2891 36.0599C61.2012 36.05 61.4788 36.278 61.4689 37.2199C61.4292 43.9021 61.449 50.5943 61.449 57.2766V57.2766Z" fill="#B48D4F"/>
<path d="M40.1528 57.6345C40.1528 64.3167 40.1528 71.0089 40.1627 77.6912C40.1627 78.4942 40.1231 78.9701 39.0722 78.9503C38.0807 78.9305 37.8428 78.643 37.8428 77.6912C37.8725 64.406 37.8725 51.1108 37.8428 37.8256C37.8428 36.8639 38.0906 36.5863 39.0722 36.5665C40.1231 36.5467 40.1627 37.0226 40.1528 37.8256C40.133 44.4286 40.1429 51.0315 40.1429 57.6345H40.1528Z" fill="#B38C4E"/>
<path d="M35.6516 60.7385C35.6516 66.4293 35.6317 72.1201 35.6714 77.811C35.6714 78.7528 35.4037 78.9908 34.4916 78.9809C33.5894 78.9709 33.2126 78.8321 33.2126 77.7812C33.2523 66.4392 33.2523 55.0972 33.2126 43.7552C33.2126 42.7638 33.4902 42.5259 34.4519 42.5159C35.4731 42.4961 35.6714 42.8431 35.6714 43.785C35.6317 49.4361 35.6516 55.0873 35.6516 60.7385V60.7385Z" fill="#B58E51"/>
<path d="M65.96 60.2519C65.96 65.9031 65.9401 71.5443 65.9798 77.1955C65.9798 78.1373 65.7716 78.4645 64.7603 78.4645C63.7392 78.4645 63.6499 78.0481 63.6598 77.2153C63.6797 65.8832 63.6797 54.5412 63.6598 43.2091C63.6598 42.3069 63.8581 41.9996 64.8099 42.0095C65.722 42.0194 65.9897 42.2475 65.9897 43.1893C65.9501 48.8801 65.9699 54.571 65.9699 60.2519H65.96Z" fill="#B38C4E"/>
<path d="M76.7964 57.1284C77.2029 57.3763 77.6193 57.5647 77.183 58.1793C76.6477 58.9229 76.846 59.8251 76.7766 60.6678C76.6576 60.8364 76.7171 61.1933 76.3899 61.1437C76.1519 61.1041 75.9933 60.9157 76.0826 60.6282C76.3205 59.6665 76.9054 58.7445 76.3502 57.6836C76.2313 57.4556 76.3304 57.1185 76.5684 56.9004C76.6477 56.9797 76.727 57.059 76.7964 57.1383V57.1284Z" fill="#DCCBAF"/>
<path d="M80.5932 48.0272C81.2179 48.6815 82.1498 48.6022 82.8934 48.9691C83.2305 49.1277 83.7163 49.0979 83.7658 49.7919C82.5166 48.8997 81.0791 48.9096 79.7803 48.4535C79.9686 48.166 80.1967 47.9479 80.5833 48.0272H80.5932Z" fill="#D9C5A6"/>
<path d="M14.6039 59.8945C15.7936 60.1226 16.9933 60.3109 17.9153 61.233C16.6265 60.6381 15.1889 60.5885 13.8604 60.1325C14.1082 60.0631 14.4255 60.182 14.6039 59.8945Z" fill="#EADFCE"/>
<path d="M86.7209 54.4125C86.1855 55.7906 84.9561 56.1971 83.697 56.5738C84.7579 55.9096 85.8286 55.2751 86.4433 54.125C86.5325 54.2241 86.6317 54.3134 86.7209 54.4125Z" fill="#EBE1D1"/>
<path d="M88.7034 71.7427C88.634 70.553 87.7318 69.512 88.1184 68.0942C88.5051 69.2443 88.8521 70.2655 89.1991 71.2767C89.0305 71.4255 88.8719 71.5841 88.7034 71.7328V71.7427Z" fill="#E6D9C4"/>
<path d="M85.4521 52.4004C84.8671 53.4414 83.9649 54.0759 82.8049 54.3535C83.5584 53.5505 84.6887 53.1836 85.2538 52.1724C85.3232 52.2418 85.3926 52.3211 85.4521 52.3905V52.4004Z" fill="#E8DCC9"/>
<path d="M22.823 56.6626C22.9717 57.4359 22.6049 58.1398 22.5553 58.8834C22.1885 58.348 21.4548 57.8424 22.4363 57.198C22.476 57.1781 22.3868 56.9799 22.3669 56.8609C22.5156 56.7915 22.6743 56.732 22.823 56.6626V56.6626Z" fill="#E6D9C5"/>
<path d="M84.0337 60.3806C83.2406 60.6185 82.4474 60.8664 81.3469 61.2035C82.1401 60.4401 82.8242 60.2715 83.5479 60.1724C83.7065 60.2418 83.8652 60.3112 84.0238 60.3806H84.0337Z" fill="#E8DDCA"/>
<path d="M14.5839 55.9492C15.0995 56.1475 15.6349 56.3061 16.081 56.8316C15.387 56.7424 14.8219 56.6135 14.3757 56.1574L14.5839 55.9492Z" fill="#DDCBB0"/>
<path d="M23.0311 60.817C23.6656 60.123 24.6372 60.2519 25.4105 59.8553C26.3821 59.3695 26.9968 58.4078 28.0774 58.1005C28.365 58.0212 28.127 57.7733 28.008 57.6246C27.5222 57.0099 28.1468 57.0198 28.5533 56.5439C28.5533 58.1203 28.5434 59.3794 28.5533 60.6485C28.5533 61.0946 28.3055 61.3028 27.9783 61.511C27.5123 61.8085 27.1058 62.2348 27.0563 62.7801C26.9571 64.0293 26.2036 63.9896 25.3113 63.7913C24.6273 63.6327 23.9432 63.484 23.269 63.2857C21.5042 62.7801 21.5142 62.7701 22.3271 61.1244C22.5452 60.9856 22.8228 60.9955 23.0112 60.8071L23.0311 60.817Z" fill="#FEFEFD"/>
<path d="M14.7129 53.292C15.4168 53.4705 15.9621 53.8472 16.6065 54.4222C15.6548 54.333 15.1491 53.867 14.7129 53.292Z" fill="#EAE0D0"/>
<path d="M23.0308 60.8176C22.9515 61.2439 22.7036 61.3034 22.3467 61.1348C22.6342 60.4012 22.5152 59.6378 22.5648 58.8843C23.1894 59.4197 22.5152 60.2624 23.0407 60.8176H23.0308Z" fill="#E6D9C5"/>
<path d="M76.0826 60.6181C76.2808 61.1733 76.5287 61.0543 76.7865 60.6578C76.8063 60.7767 76.8261 60.9056 76.8559 61.0246C76.9748 61.6194 77.8374 62.1449 77.4805 62.6307C77.1533 63.0669 76.3205 63.1463 75.6959 63.3445C75.1506 63.523 74.5855 63.642 74.0303 63.7907C73.0785 64.0385 72.3151 63.9791 72.1862 62.7497C72.1664 62.5514 72.0772 62.2936 71.9384 62.2044C69.8266 60.7866 70.9668 58.665 70.6297 56.7812C71.2311 57.0853 71.3699 57.4951 71.0461 58.0106C72.6522 59.0219 74.1294 60.3207 76.1024 60.628L76.0826 60.6181Z" fill="#FEFDFD"/>
<path fill-rule="evenodd" clip-rule="evenodd" d="M56.0425 57.9372C56.0441 55.9856 56.0457 54.0341 56.0457 52.0825L56.0358 52.0924C56.0358 50.3751 56.0354 48.6581 56.035 46.9414C56.0334 40.0755 56.0318 33.2134 56.0556 26.3449C56.0556 25.522 55.8573 24.9668 55.1336 24.5107C53.5274 23.4896 51.961 22.4188 50.4242 21.3084C49.8096 20.8623 49.3832 20.9217 48.7983 21.3481C47.2219 22.4783 45.6158 23.5788 43.9898 24.6198C43.3553 25.0263 43.1372 25.4823 43.1372 26.2259C43.167 43.3876 43.1769 60.5493 43.1372 77.711C43.1372 78.7917 43.4941 78.99 44.4756 78.9702C47.8267 78.9008 51.1678 78.8909 54.509 78.9702C55.7086 78.9999 56.0952 78.762 56.0853 77.4533C56.0319 70.9479 56.0372 64.4426 56.0425 57.9372ZM45.4001 46.4873C45.3989 48.3852 45.3976 50.2835 45.3976 52.1824V52.1923C45.3976 54.1107 45.3989 56.0291 45.4001 57.9475C45.4038 63.7028 45.4075 69.4581 45.3778 75.2134C45.3679 76.2544 45.6653 76.5419 46.6865 76.5022C48.6297 76.4229 50.5729 76.3932 52.5062 76.5022C53.6463 76.5617 53.8446 76.1651 53.8446 75.1142C53.8149 59.8065 53.8149 44.5087 53.8446 29.2009C53.8446 28.3483 53.5769 27.8724 52.8631 27.4362C51.2603 26.4419 50.4647 25.9461 49.667 25.9429C48.866 25.9396 48.063 26.4328 46.4386 27.4164C45.6058 27.9121 45.3778 28.4871 45.3778 29.4091C45.4075 35.1046 45.4038 40.7945 45.4001 46.4873Z" fill="#B38C4E"/>
<path d="M50.0758 42.9714L50.7826 44.4702C50.8022 44.5119 50.8313 44.548 50.8672 44.5753C50.9032 44.6027 50.945 44.6204 50.9889 44.6271L52.5692 44.8675C52.6198 44.8752 52.6673 44.8976 52.7064 44.9321C52.7455 44.9666 52.7746 45.0119 52.7904 45.0628C52.8062 45.1137 52.8081 45.1682 52.7958 45.2202C52.7835 45.2722 52.7576 45.3195 52.721 45.3569L51.5773 46.5235C51.5127 46.5895 51.4833 46.6845 51.4984 46.7774L51.7684 48.4248C51.777 48.4776 51.7714 48.5318 51.7521 48.5814C51.7328 48.631 51.7007 48.6739 51.6593 48.7054C51.6179 48.7368 51.569 48.7555 51.518 48.7594C51.467 48.7632 51.416 48.7521 51.3707 48.7272L49.9571 47.9492C49.9177 47.9276 49.874 47.9163 49.8295 47.9163C49.7851 47.9163 49.7413 47.9276 49.702 47.9492L48.2884 48.7272C48.2431 48.7521 48.1921 48.7632 48.1411 48.7594C48.0901 48.7555 48.0411 48.7368 47.9998 48.7054C47.9584 48.6739 47.9262 48.631 47.907 48.5814C47.8877 48.5318 47.8821 48.4776 47.8907 48.4248L48.1606 46.7774C48.1682 46.7316 48.1649 46.6845 48.1512 46.6403C48.1374 46.596 48.1136 46.556 48.0817 46.5235L46.9381 45.3569C46.9014 45.3195 46.8755 45.2722 46.8632 45.2202C46.851 45.1682 46.8528 45.1137 46.8686 45.0628C46.8844 45.0119 46.9135 44.9666 46.9526 44.9321C46.9917 44.8976 47.0393 44.8752 47.0899 44.8675L48.6701 44.6271C48.7141 44.6204 48.7559 44.6027 48.7918 44.5753C48.8278 44.548 48.8568 44.5119 48.8765 44.4702L49.5833 42.9714C49.6847 42.7582 49.9752 42.7582 50.0758 42.9714Z" fill="#B38C4E"/>
<path d="M50.0346 50.8764L50.6236 52.1254C50.64 52.1602 50.6642 52.1902 50.6942 52.213C50.7241 52.2358 50.7589 52.2506 50.7956 52.2562L52.1124 52.4565C52.1546 52.4629 52.1942 52.4815 52.2268 52.5103C52.2594 52.539 52.2837 52.5768 52.2968 52.6192C52.31 52.6616 52.3116 52.7071 52.3013 52.7504C52.2911 52.7937 52.2695 52.8332 52.239 52.8643L51.2859 53.8365C51.232 53.8915 51.2076 53.9706 51.2201 54.0481L51.4451 55.4209C51.4523 55.4649 51.4476 55.5101 51.4315 55.5514C51.4155 55.5927 51.3887 55.6285 51.3542 55.6547C51.3197 55.6809 51.279 55.6965 51.2365 55.6997C51.1939 55.7029 51.1514 55.6936 51.1137 55.6729L49.9357 55.0246C49.9029 55.0066 49.8664 54.9972 49.8294 54.9972C49.7924 54.9972 49.7559 55.0066 49.7231 55.0246L48.5451 55.6729C48.5074 55.6936 48.4649 55.7029 48.4224 55.6997C48.3799 55.6965 48.3391 55.6809 48.3046 55.6547C48.2701 55.6285 48.2433 55.5927 48.2273 55.5514C48.2112 55.5101 48.2065 55.4649 48.2137 55.4209L48.4387 54.0481C48.4449 54.0099 48.4422 53.9706 48.4308 53.9338C48.4193 53.8969 48.3994 53.8635 48.3729 53.8365L47.4199 52.8643C47.3893 52.8332 47.3677 52.7937 47.3575 52.7504C47.3473 52.7071 47.3488 52.6616 47.362 52.6192C47.3752 52.5768 47.3994 52.539 47.432 52.5103C47.4646 52.4815 47.5042 52.4629 47.5464 52.4565L48.8632 52.2562C48.8999 52.2506 48.9347 52.2358 48.9646 52.213C48.9946 52.1902 49.0188 52.1602 49.0352 52.1254L49.6242 50.8764C49.7087 50.6988 49.9508 50.6988 50.0346 50.8764Z" fill="#B38C4E"/>
<path d="M49.9935 57.7892L50.4647 58.7884C50.4778 58.8162 50.4971 58.8403 50.5211 58.8585C50.5451 58.8767 50.5729 58.8886 50.6022 58.893L51.6557 59.0533C51.6895 59.0584 51.7212 59.0733 51.7472 59.0963C51.7733 59.1193 51.7927 59.1495 51.8032 59.1835C51.8138 59.2174 51.815 59.2538 51.8068 59.2884C51.7987 59.3231 51.7814 59.3546 51.7569 59.3795L50.9945 60.1573C50.9514 60.2013 50.9318 60.2646 50.9419 60.3265L51.1219 61.4248C51.1276 61.46 51.1239 61.4961 51.111 61.5292C51.0982 61.5622 51.0767 61.5909 51.0492 61.6118C51.0216 61.6328 50.9889 61.6453 50.9549 61.6479C50.9209 61.6504 50.8869 61.643 50.8567 61.6264L49.9144 61.1077C49.8881 61.0933 49.8589 61.0858 49.8293 61.0858C49.7997 61.0858 49.7705 61.0933 49.7443 61.1077L48.8019 61.6264C48.7717 61.643 48.7377 61.6504 48.7037 61.6479C48.6697 61.6453 48.637 61.6328 48.6095 61.6118C48.5819 61.5909 48.5604 61.5622 48.5476 61.5292C48.5348 61.4961 48.531 61.46 48.5368 61.4248L48.7167 60.3265C48.7217 60.296 48.7196 60.2646 48.7104 60.2351C48.7012 60.2056 48.6853 60.1789 48.6641 60.1573L47.9017 59.3795C47.8772 59.3546 47.86 59.3231 47.8518 59.2884C47.8436 59.2538 47.8448 59.2174 47.8554 59.1835C47.8659 59.1495 47.8853 59.1193 47.9114 59.0963C47.9374 59.0733 47.9691 59.0584 48.0029 59.0533L49.0564 58.893C49.0857 58.8886 49.1135 58.8767 49.1375 58.8585C49.1615 58.8403 49.1808 58.8162 49.1939 58.7884L49.6651 57.7892C49.7327 57.6471 49.9264 57.6471 49.9935 57.7892Z" fill="#B38C4E"/>
<path d="M49.9526 63.7118L50.306 64.4612C50.3158 64.482 50.3303 64.5001 50.3483 64.5137C50.3663 64.5274 50.3872 64.5363 50.4091 64.5396L51.1992 64.6598C51.2246 64.6637 51.2483 64.6749 51.2679 64.6921C51.2874 64.7094 51.302 64.732 51.3099 64.7575C51.3178 64.7829 51.3187 64.8102 51.3126 64.8362C51.3064 64.8622 51.2935 64.8858 51.2752 64.9045L50.7033 65.4878C50.671 65.5208 50.6563 65.5683 50.6639 65.6148L50.7988 66.4385C50.8032 66.4649 50.8003 66.492 50.7907 66.5168C50.7811 66.5416 50.765 66.563 50.7443 66.5788C50.7236 66.5945 50.6992 66.6038 50.6737 66.6058C50.6482 66.6077 50.6226 66.6021 50.6 66.5897L49.8932 66.2007C49.8735 66.1899 49.8517 66.1842 49.8294 66.1842C49.8072 66.1842 49.7853 66.1899 49.7656 66.2007L49.0589 66.5897C49.0362 66.6021 49.0107 66.6077 48.9852 66.6058C48.9597 66.6038 48.9352 66.5945 48.9145 66.5788C48.8939 66.563 48.8778 66.5416 48.8682 66.5168C48.8585 66.492 48.8557 66.4649 48.86 66.4385L48.995 65.6148C48.9988 65.5919 48.9971 65.5683 48.9902 65.5462C48.9834 65.5241 48.9715 65.5041 48.9555 65.4878L48.3837 64.9045C48.3654 64.8858 48.3524 64.8622 48.3463 64.8362C48.3402 64.8102 48.3411 64.7829 48.349 64.7575C48.3569 64.732 48.3714 64.7094 48.391 64.6921C48.4105 64.6749 48.4343 64.6637 48.4596 64.6598L49.2497 64.5396C49.2717 64.5363 49.2926 64.5274 49.3106 64.5137C49.3286 64.5001 49.3431 64.482 49.3529 64.4612L49.7063 63.7118C49.757 63.6052 49.9023 63.6052 49.9526 63.7118Z" fill="#B38C4E"/>
<path d="M49.9114 68.6417L50.147 69.1413C50.1536 69.1552 50.1632 69.1672 50.1752 69.1763C50.1872 69.1854 50.2011 69.1913 50.2158 69.1936L50.7425 69.2737C50.7594 69.2763 50.7753 69.2837 50.7883 69.2952C50.8013 69.3067 50.811 69.3218 50.8163 69.3388C50.8216 69.3558 50.8222 69.3739 50.8181 69.3913C50.814 69.4086 50.8054 69.4244 50.7931 69.4368L50.4119 69.8257C50.3904 69.8477 50.3806 69.8794 50.3856 69.9103L50.4756 70.4595C50.4785 70.4771 50.4766 70.4951 50.4702 70.5117C50.4638 70.5282 50.453 70.5425 50.4392 70.553C50.4255 70.5635 50.4091 70.5697 50.3921 70.571C50.3751 70.5723 50.3581 70.5686 50.343 70.5603L49.8718 70.3009C49.8587 70.2937 49.8441 70.29 49.8293 70.29C49.8145 70.29 49.7999 70.2937 49.7868 70.3009L49.3156 70.5603C49.3005 70.5686 49.2835 70.5723 49.2665 70.571C49.2495 70.5697 49.2332 70.5635 49.2194 70.553C49.2056 70.5425 49.1949 70.5282 49.1885 70.5117C49.182 70.4951 49.1802 70.4771 49.183 70.4595L49.273 69.9103C49.2755 69.8951 49.2744 69.8794 49.2699 69.8646C49.2653 69.8499 49.2573 69.8365 49.2467 69.8257L48.8655 69.4368C48.8533 69.4244 48.8447 69.4086 48.8406 69.3913C48.8365 69.3739 48.8371 69.3558 48.8424 69.3388C48.8476 69.3218 48.8573 69.3067 48.8704 69.2952C48.8834 69.2837 48.8992 69.2763 48.9161 69.2737L49.4429 69.1936C49.4575 69.1913 49.4714 69.1854 49.4834 69.1763C49.4954 69.1672 49.5051 69.1552 49.5116 69.1413L49.7472 68.6417C49.781 68.5706 49.8779 68.5706 49.9114 68.6417Z" fill="#B38C4E"/>
</g>
<defs>
<clipPath id="clip0_1458_66">
<rect width="99" height="99" fill="white"/>
</clipPath>
</defs>
</svg>
