<svg width="35" height="35" viewBox="0 0 35 35" fill="none" xmlns="http://www.w3.org/2000/svg">
<path d="M28.6067 0C30.3679 0 31.8738 0.625294 33.1244 1.87588C34.375 3.12647 35.0003 4.63235 35.0003 6.39353V27.7053C35.0003 29.4665 34.375 30.9724 33.1244 32.223C31.8738 33.4736 30.3679 34.0988 28.6067 34.0988H24.4332V20.89H28.8509L29.5169 15.7396H24.4332V12.4541C24.4332 11.6253 24.6071 11.0037 24.9549 10.5893C25.3027 10.1749 25.9797 9.9677 26.9861 9.9677L29.6945 9.9455V5.35014C28.7621 5.21695 27.4449 5.15035 25.7429 5.15035C23.7302 5.15035 22.1207 5.74234 20.9145 6.92633C19.7083 8.11032 19.1052 9.7827 19.1052 11.9435V15.7396H14.6653V20.89H19.1052V34.0988H7.29494C5.53376 34.0988 4.02787 33.4736 2.77729 32.223C1.5267 30.9724 0.901405 29.4665 0.901405 27.7053V6.39353C0.901405 4.63235 1.5267 3.12647 2.77729 1.87588C4.02787 0.625294 5.53376 0 7.29494 0H28.6067Z" fill="#B48D4E"/>
</svg>
