<svg width="18" height="17" viewBox="0 0 18 17" fill="none" xmlns="http://www.w3.org/2000/svg">
<path d="M3.17408 11.5412C3.17408 12.1457 3.47141 12.4381 4.07597 12.4381C7.3515 12.4381 10.627 12.4381 13.9026 12.4381C14.5071 12.4381 14.7995 12.1457 14.7995 11.5412C14.7995 8.70666 14.7995 5.87216 14.8044 3.03271C14.8044 2.85927 14.7698 2.80476 14.5864 2.80476C12.7182 2.81467 10.855 2.80972 8.98678 2.80972C7.11859 2.80972 5.25536 2.80972 3.38717 2.80476C3.22859 2.80476 3.16913 2.8345 3.16913 3.01289C3.17408 5.8573 3.17408 8.7017 3.17408 11.5412ZM6.23157 6.36275C6.24148 6.36275 6.25635 6.36275 6.26626 6.3578C6.72216 6.31815 6.7172 6.3132 6.86587 5.88208C6.88569 5.81765 6.86587 5.77801 6.82622 5.73341C6.73703 5.62935 6.65774 5.52033 6.55863 5.42618C6.47934 5.34689 6.48926 5.28743 6.55863 5.20814C6.75189 4.98019 6.96993 4.78197 7.20283 4.59367C7.27717 4.5342 7.33663 4.51934 7.40601 4.59862C7.43574 4.63827 7.48529 4.65809 7.51998 4.69278C7.70333 4.92073 7.90155 4.95046 8.14932 4.78693C8.24843 4.72251 8.33267 4.67791 8.32771 4.54411C8.32771 4.45492 8.37727 4.36076 8.36736 4.27157C8.34258 4.07335 8.45655 4.04362 8.61017 4.01884C8.88272 3.97424 9.15031 3.98911 9.4179 4.04362C9.48232 4.05848 9.52197 4.0783 9.51206 4.14768C9.51206 4.15759 9.51206 4.17246 9.51206 4.18237C9.53683 4.69278 9.53683 4.68782 9.99273 4.9009C10.0423 4.92568 10.0671 4.91577 10.1018 4.88604C10.1612 4.83153 10.2256 4.78197 10.2851 4.73242C10.5428 4.50943 10.5428 4.51438 10.8153 4.73242C10.9888 4.87613 11.1275 5.04461 11.2663 5.22301C11.3257 5.29734 11.3257 5.34689 11.2564 5.41131C11.2217 5.446 11.1969 5.4906 11.1622 5.52529C10.9392 5.70864 10.8996 5.90685 11.0681 6.15462C11.1325 6.25373 11.1721 6.34293 11.3109 6.32806C11.3654 6.32311 11.4199 6.34293 11.4744 6.35284C11.8163 6.39248 11.8163 6.39248 11.8262 6.72945C11.8312 6.9574 11.8361 7.18535 11.8064 7.4133C11.7965 7.50745 11.7618 7.54709 11.6677 7.54214C11.633 7.54214 11.5933 7.54709 11.5586 7.55205C11.1226 7.60656 11.1127 7.61647 10.9838 8.03273C10.964 8.09219 10.9789 8.12688 11.0135 8.16157C11.0928 8.25572 11.1622 8.36474 11.2564 8.44402C11.3902 8.558 11.3456 8.63729 11.2514 8.7463C11.078 8.94452 10.8946 9.12292 10.6964 9.2914C10.6122 9.36078 10.5477 9.39051 10.4685 9.29636C10.4437 9.26662 10.409 9.25176 10.3842 9.22202C10.1909 8.97425 9.97787 8.95939 9.72019 9.12787C9.63099 9.18734 9.56161 9.23193 9.57152 9.34591C9.57648 9.3806 9.56161 9.42024 9.55666 9.45493C9.49719 9.82658 9.49719 9.82658 9.11562 9.87118C8.89263 9.89596 8.66964 9.85632 8.4516 9.84145C8.39709 9.8365 8.37231 9.81667 8.36736 9.76712C8.3624 9.73739 8.3624 9.70765 8.35745 9.67297C8.31285 9.17743 8.30789 9.17247 7.85695 8.99407C7.84208 8.98912 7.82226 8.97921 7.79748 8.9693C7.71324 9.03867 7.629 9.11301 7.54476 9.18238C7.25734 9.42024 7.36636 9.42024 7.07895 9.18238C6.8956 9.03372 6.74198 8.85532 6.59332 8.67693C6.53385 8.60755 6.52394 8.55304 6.59332 8.49358C6.62305 8.4688 6.64287 8.43907 6.66269 8.40934C6.9402 8.08228 6.93524 8.08228 6.77171 7.67593C6.74198 7.6016 6.70234 7.58674 6.63792 7.57683C6.51403 7.56692 6.39015 7.53718 6.27122 7.53718C6.14238 7.53718 6.07796 7.49754 6.07796 7.35879C6.073 7.08624 6.05318 6.81369 6.03831 6.5461C6.0284 6.41726 6.10273 6.36275 6.23157 6.36275Z" fill="white"/>
<path d="M1.4397 14.0783C3.95705 14.0734 6.46945 14.0734 8.9868 14.0734C11.4942 14.0734 14.0066 14.0684 16.5141 14.0783C16.7123 14.0783 16.742 14.0189 16.742 13.8405C16.7371 10.9416 16.7371 8.04759 16.7321 5.14868C16.7321 5.02975 16.7866 4.92568 16.7618 4.80675C16.6974 4.48465 16.4546 4.23688 16.1275 4.19228C15.964 4.17246 15.7955 4.18733 15.627 4.17246C15.4685 4.15759 15.4387 4.2121 15.4387 4.36572C15.4437 6.74432 15.4437 9.12292 15.4437 11.4966C15.4437 12.4282 14.8738 13.003 13.9472 13.003C10.6518 13.003 7.36142 13.003 4.06607 13.003C3.14932 13.003 2.57449 12.4282 2.57449 11.5114C2.57449 9.23689 2.57449 6.96731 2.57449 4.69278C2.57449 4.53916 2.62404 4.33599 2.54476 4.24679C2.46052 4.14768 2.25239 4.21706 2.10373 4.21706C1.54872 4.2121 1.24644 4.51934 1.24644 5.07434C1.24644 8.00795 1.24644 10.9416 1.24148 13.8801C1.23157 14.0585 1.28608 14.0783 1.4397 14.0783Z" fill="white"/>
<path d="M17.7034 14.6086C17.6489 14.6036 17.5943 14.6086 17.5349 14.6086C14.7004 14.6086 11.8659 14.6086 9.02644 14.6086C6.57351 14.6086 4.12058 14.6086 1.66765 14.6086C1.24644 14.6086 0.82523 14.6086 0.408975 14.6086C0.0769628 14.6086 -0.076655 14.8316 0.0373195 15.1388C0.171116 15.4956 0.304912 15.8573 0.438708 16.2141C0.547727 16.5065 0.602237 16.5461 0.914428 16.5461C2.09382 16.5461 3.2732 16.5461 4.45259 16.5461C8.64487 16.5461 12.8421 16.5461 17.0344 16.5461C17.3416 16.5461 17.4209 16.4867 17.5299 16.2042C17.6786 15.8177 17.8223 15.4312 17.971 15.0446C18.0602 14.8216 17.9363 14.6284 17.7034 14.6086ZM9.69046 15.9019C9.46252 15.9069 9.23457 15.9019 9.00662 15.9019C8.77867 15.9019 8.55072 15.9019 8.32277 15.9019C8.09978 15.897 7.96102 15.7731 7.96598 15.5897C7.97094 15.4113 8.09978 15.2924 8.31781 15.2924C8.77867 15.2875 9.24448 15.2875 9.70533 15.2924C9.92337 15.2924 10.0522 15.4163 10.0572 15.5947C10.0522 15.778 9.91346 15.897 9.69046 15.9019Z" fill="white"/>
<path d="M3.36738 2.2448C5.24053 2.23985 7.11367 2.23985 8.98682 2.23985C9.77968 2.23985 10.5676 2.23985 11.3605 2.23985C12.4606 2.23985 13.5607 2.23489 14.6608 2.2448C14.8094 2.2448 14.8441 2.2002 14.8392 2.06145C14.8292 1.74431 14.8342 1.43211 14.8392 1.11497C14.8392 0.956395 14.8738 0.797822 14.854 0.639248C14.8094 0.247771 14.4824 0 14.0512 0C10.7014 0 7.35153 0 4.00167 0C3.48135 0 3.17412 0.307236 3.17412 0.832509C3.17412 1.2339 3.18403 1.63529 3.16916 2.04163C3.16421 2.2002 3.20385 2.2448 3.36738 2.2448ZM7.75292 0.758178C7.94123 0.748267 8.13449 0.748267 8.32279 0.758178C8.49128 0.768089 8.61021 0.906841 8.61021 1.06541C8.60525 1.22399 8.49128 1.34787 8.31784 1.36274C8.22864 1.37265 8.13449 1.36274 8.04033 1.36274C7.94123 1.36274 7.84212 1.37265 7.74301 1.36274C7.57948 1.34292 7.47046 1.21903 7.47046 1.06541C7.46551 0.901885 7.57948 0.768089 7.75292 0.758178ZM5.98384 0.812688C6.20683 0.773044 6.43478 0.778 6.66273 0.807732C6.80644 0.827554 6.89563 0.936573 6.89068 1.08028C6.88572 1.21903 6.80148 1.32805 6.65777 1.35283C6.5438 1.37265 6.42487 1.36769 6.32081 1.37265C6.20683 1.36769 6.09781 1.37265 5.9987 1.35283C5.85995 1.32805 5.76084 1.24381 5.76084 1.09019C5.7658 0.946484 5.84013 0.837465 5.98384 0.812688ZM4.32873 0.758178C4.51703 0.748267 4.7103 0.748267 4.90356 0.758178C5.07204 0.768089 5.18602 0.89693 5.18602 1.04559C5.18602 1.19921 5.06213 1.34787 4.90356 1.36274C4.80445 1.37265 4.70534 1.36274 4.60623 1.36274C4.51208 1.36274 4.42288 1.37265 4.32873 1.36274C4.16025 1.34292 4.05618 1.22894 4.05123 1.07037C4.05123 0.901885 4.15529 0.773045 4.32873 0.758178Z" fill="white"/>
<path d="M9.02646 8.25076C9.76481 8.25076 10.3595 7.65611 10.3545 6.91776C10.3545 6.19427 9.77473 5.62935 9.03141 5.62439C8.29801 5.61944 7.69841 6.21409 7.69345 6.95244C7.6885 7.68089 8.27324 8.25076 9.02646 8.25076Z" fill="white"/>
</svg>
