<svg width="18" height="18" viewBox="0 0 18 18" fill="none" xmlns="http://www.w3.org/2000/svg">
<path d="M17.9109 7.70156C17.7656 6.65156 17.4328 5.66719 16.9313 4.72969C16.4203 3.77344 15.75 2.94375 14.9484 2.22187C14.1937 1.54219 13.3406 1.0125 12.3984 0.632812C11.5172 0.271875 10.6078 0.0140625 9.64688 0.01875C9.64688 0.0234375 9.64687 0.028125 9.65156 0.028125C9.52969 0.0375 9.4125 0.0515625 9.29531 0C9.08438 0 8.87344 0 8.6625 0C8.54531 0.05625 8.42812 0.0421875 8.30625 0.028125C8.30625 0.0234375 8.31094 0.01875 8.31094 0.0140625C8.11875 0.0046875 7.92188 0.0140625 7.73438 0.0375C6.57656 0.1875 5.49844 0.571875 4.49063 1.14844C3.59063 1.66406 2.80781 2.325 2.13281 3.1125C1.06406 4.37813 0.379687 5.8125 0.0890625 7.42969C0.0375 7.70625 0.0421875 7.9875 0 8.25938C0 8.75156 0 9.24375 0 9.73594C0.01875 9.75469 0.01875 9.77813 0.01875 9.80156C0.0234375 10.3125 0.117188 10.8141 0.253125 11.3063C0.740625 13.1063 1.6875 14.625 3.09844 15.8484C4.42969 16.9969 5.96719 17.7 7.70625 17.9531C7.89375 17.9813 8.08594 17.9625 8.27813 18C8.72344 18 9.16875 18 9.60938 18C9.81563 17.9672 10.0266 17.9859 10.2328 17.9578C11.3578 17.8031 12.4125 17.4375 13.4016 16.8844C14.3297 16.3641 15.1313 15.6891 15.825 14.8828C16.7859 13.7672 17.4328 12.4875 17.7703 11.0531C17.8828 10.575 17.9578 10.0922 17.9672 9.59531C17.9766 8.95781 18 8.32969 17.9109 7.70156ZM10.1063 3.37969C10.725 3.37969 11.2266 3.89062 11.2266 4.51406C11.2219 5.13281 10.7109 5.63437 10.0922 5.62969C9.48281 5.625 8.98125 5.11875 8.98125 4.50469C8.98125 3.88125 9.48281 3.375 10.1063 3.37969ZM11.2125 12.5859C11.1281 13.3266 10.6219 14.1891 9.39844 14.3719C8.94375 14.4422 8.48437 14.5078 8.03437 14.6063C7.22344 14.7797 6.50625 13.9219 6.79688 13.1297C7.15781 12.1453 7.50937 11.1563 7.87031 10.1672C8.07656 9.6 8.28281 9.02813 8.49844 8.4375C7.97344 8.4375 7.46719 8.4375 6.96563 8.4375C6.7125 8.4375 6.7125 8.4375 6.75469 8.17969C6.88125 7.40156 7.35938 6.90469 8.05313 6.60469C8.68125 6.3375 9.34687 6.18281 10.0266 6.19688C10.9828 6.21563 11.4141 7.01719 11.1328 7.77188C10.5844 9.23906 10.0594 10.7203 9.525 12.1969C9.50625 12.2484 9.4875 12.3047 9.46406 12.375C9.99844 12.375 10.5141 12.375 11.0344 12.375C11.2406 12.375 11.2406 12.375 11.2125 12.5859Z" fill="white"/>
<path d="M8.66248 0.00468826C8.54529 0.00468826 8.4281 0.00468826 8.31091 0.00468826C8.31091 0.00937576 8.31091 0.0187508 8.31091 0.0234383C8.3156 0.0234383 8.32029 0.0234383 8.32966 0.0234383C8.43748 0.0140633 8.55466 0.0468758 8.66248 0.00468826Z" fill="white"/>
<path d="M9.6281 0.0234383C9.63279 0.0234383 9.63748 0.0234383 9.64685 0.0234383C9.64685 0.0187508 9.64685 0.00937576 9.64685 0.00468826C9.52966 0.00468826 9.41248 0.00468826 9.29529 0.00468826C9.4031 0.0468758 9.52029 0.0140633 9.6281 0.0234383Z" fill="white"/>
</svg>
