<svg width="35" height="35" viewBox="0 0 35 35" fill="none" xmlns="http://www.w3.org/2000/svg">
<path d="M17.0494 12.8212C16.2132 12.8212 15.3957 13.0691 14.7003 13.5338C14.005 13.9984 13.463 14.6587 13.143 15.4313C12.823 16.204 12.7393 17.0541 12.9024 17.8743C13.0656 18.6945 13.4683 19.4479 14.0596 20.0393C14.6509 20.6306 15.4043 21.0333 16.2245 21.1964C17.0447 21.3596 17.8949 21.2759 18.6675 20.9558C19.4401 20.6358 20.1005 20.0939 20.5651 19.3985C21.0297 18.7032 21.2777 17.8857 21.2777 17.0494C21.2777 16.4942 21.1683 15.9443 20.9558 15.4313C20.7433 14.9183 20.4319 14.4522 20.0393 14.0596C19.6466 13.667 19.1805 13.3555 18.6675 13.143C18.1545 12.9305 17.6047 12.8212 17.0494 12.8212ZM33.9795 8.64406C33.9705 7.32743 33.7281 6.02283 33.2634 4.79089C32.9212 3.88942 32.3917 3.07076 31.7099 2.38894C31.0281 1.70712 30.2094 1.17763 29.308 0.835422C28.076 0.370763 26.7714 0.128315 25.4548 0.119346C23.2554 -1.14325e-07 22.6075 0 17.0494 0C11.4913 0 10.8434 -1.14325e-07 8.64406 0.119346C7.32743 0.128315 6.02283 0.370763 4.79089 0.835422C3.88942 1.17763 3.07076 1.70712 2.38894 2.38894C1.70712 3.07076 1.17763 3.88942 0.835422 4.79089C0.370763 6.02283 0.128315 7.32743 0.119346 8.64406C-1.14325e-07 10.8434 0 11.4913 0 17.0494C0 22.6075 -1.14325e-07 23.2554 0.119346 25.4548C0.137698 26.7761 0.379817 28.0847 0.835422 29.325C1.17612 30.2224 1.70516 31.0363 2.38692 31.7119C3.06582 32.3978 3.88623 32.9273 4.79089 33.2634C6.02283 33.7281 7.32743 33.9705 8.64406 33.9795C10.8434 34.0988 11.4913 34.0988 17.0494 34.0988C22.6075 34.0988 23.2554 34.0988 25.4548 33.9795C26.7714 33.9705 28.076 33.7281 29.308 33.2634C30.2126 32.9273 31.033 32.3978 31.7119 31.7119C32.3937 31.0363 32.9227 30.2224 33.2634 29.325C33.7276 28.087 33.97 26.7769 33.9795 25.4548C34.0988 23.2554 34.0988 22.6075 34.0988 17.0494C34.0988 11.4913 34.0988 10.8434 33.9795 8.64406ZM29.6489 22.2836C29.5942 23.3357 29.3697 24.3721 28.984 25.3525C28.653 26.1703 28.161 26.9133 27.5371 27.5371C26.9133 28.161 26.1703 28.653 25.3525 28.984C24.3628 29.3482 23.3207 29.5497 22.2665 29.5807C20.9196 29.5807 20.5616 29.5807 17.0494 29.5807C13.5372 29.5807 13.1792 29.5807 11.8323 29.5807C10.7782 29.5497 9.73605 29.3482 8.74635 28.984C7.90088 28.6698 7.13736 28.1686 6.51288 27.5178C5.89512 26.9061 5.41804 26.1672 5.11483 25.3525C4.74921 24.3638 4.55323 23.3205 4.53515 22.2665C4.53515 20.9196 4.53515 20.5616 4.53515 17.0494C4.53515 13.5372 4.53515 13.1792 4.53515 11.8323C4.55323 10.7783 4.74921 9.73502 5.11483 8.74635C5.42902 7.90088 5.93026 7.13736 6.58108 6.51288C7.19543 5.89846 7.93355 5.42188 8.74635 5.11483C9.73605 4.75066 10.7782 4.54914 11.8323 4.5181C13.1792 4.5181 13.5372 4.5181 17.0494 4.5181C20.5616 4.5181 20.9196 4.5181 22.2665 4.5181C23.3207 4.54914 24.3628 4.75066 25.3525 5.11483C26.198 5.42902 26.9615 5.93026 27.586 6.58108C28.2037 7.19272 28.6808 7.93162 28.984 8.74635C29.3482 9.73605 29.5497 10.7782 29.5807 11.8323C29.5807 13.1792 29.5807 13.5372 29.5807 17.0494C29.5807 20.5616 29.7001 20.9196 29.6489 22.2665V22.2836ZM26.921 9.59883C26.718 9.0481 26.398 8.54797 25.983 8.13294C25.5679 7.71791 25.0678 7.39785 24.5171 7.19486C23.7609 6.93274 22.9645 6.80577 22.1643 6.81977C20.8344 6.81977 20.4593 6.81977 17.0494 6.81977C13.6395 6.81977 13.2645 6.81977 11.9346 6.81977C11.1303 6.82763 10.3338 6.9777 9.58178 7.26305C9.03948 7.45683 8.54465 7.76382 8.13016 8.16361C7.71567 8.5634 7.39103 9.04683 7.17781 9.58178C6.93021 10.3411 6.80925 11.136 6.81977 11.9346C6.81977 13.2645 6.81977 13.6395 6.81977 17.0494C6.81977 20.4593 6.81977 20.8344 6.81977 22.1643C6.83667 22.9676 6.98646 23.7626 7.26305 24.5171C7.46605 25.0678 7.7861 25.5679 8.20114 25.983C8.61617 26.398 9.1163 26.718 9.66702 26.921C10.3945 27.1886 11.16 27.3382 11.9346 27.3643C13.2645 27.3643 13.6395 27.3643 17.0494 27.3643C20.4593 27.3643 20.8344 27.3643 22.1643 27.3643C22.9685 27.3565 23.7651 27.2064 24.5171 26.921C25.0678 26.718 25.5679 26.398 25.983 25.983C26.398 25.5679 26.718 25.0678 26.921 24.5171C27.2064 23.7651 27.3565 22.9685 27.3643 22.1643C27.3643 20.8344 27.3643 20.4593 27.3643 17.0494C27.3643 13.6395 27.3643 13.2645 27.3643 11.9346C27.3648 11.1295 27.2145 10.3315 26.921 9.58178V9.59883ZM17.0494 23.5623C16.1949 23.5623 15.3489 23.3937 14.5596 23.0662C13.7704 22.7387 13.0536 22.2587 12.4501 21.6537C11.8467 21.0487 11.3686 20.3306 11.0432 19.5405C10.7177 18.7504 10.5513 17.9039 10.5536 17.0494C10.5536 15.7606 10.936 14.5007 11.6524 13.4293C12.3688 12.3579 13.387 11.5231 14.5781 11.0307C15.7691 10.5383 17.0795 10.4103 18.3434 10.663C19.6072 10.9156 20.7676 11.5376 21.6778 12.4502C22.588 13.3627 23.2069 14.5248 23.4563 15.7893C23.7057 17.0538 23.5742 18.3639 23.0787 19.5536C22.5831 20.7434 21.7457 21.7594 20.6724 22.473C19.5991 23.1866 18.3383 23.5657 17.0494 23.5623ZM23.8692 11.8153C23.4923 11.7754 23.1435 11.5974 22.89 11.3157C22.6365 11.0339 22.4963 10.6683 22.4963 10.2893C22.4963 9.91033 22.6365 9.54474 22.89 9.263C23.1435 8.98126 23.4923 8.8033 23.8692 8.7634C24.2461 8.8033 24.5949 8.98126 24.8484 9.263C25.1019 9.54474 25.2421 9.91033 25.2421 10.2893C25.2421 10.6683 25.1019 11.0339 24.8484 11.3157C24.5949 11.5974 24.2461 11.7754 23.8692 11.8153Z" fill="#B48D4E"/>
</svg>
