<svg width="16" height="10" viewBox="0 0 16 10" fill="none" xmlns="http://www.w3.org/2000/svg">
<path d="M16 5.31158C16 5.48132 15.9326 5.64411 15.8125 5.76413C15.6925 5.88416 15.5297 5.95158 15.36 5.95158H2.82496L5.57184 8.69846C5.68842 8.81917 5.75293 8.98084 5.75147 9.14864C5.75001 9.31645 5.6827 9.47697 5.56404 9.59563C5.44538 9.71429 5.28486 9.7816 5.11706 9.78306C4.94925 9.78451 4.78758 9.72001 4.66688 9.60342L0.826879 5.76342C0.767658 5.70455 0.720661 5.63454 0.688589 5.55744C0.656517 5.48033 0.640005 5.39765 0.639999 5.31414V5.31158C0.639999 5.22838 0.656639 5.14518 0.689919 5.0671C0.721816 4.98951 0.768806 4.91903 0.828159 4.85974L4.66816 1.01974C4.78886 0.903162 4.95053 0.838654 5.11834 0.840112C5.28614 0.84157 5.44666 0.908878 5.56532 1.02754C5.68398 1.1462 5.75129 1.30672 5.75275 1.47453C5.75421 1.64233 5.6897 1.804 5.57312 1.9247L2.82496 4.67158H15.36C15.5297 4.67158 15.6925 4.73901 15.8125 4.85904C15.9326 4.97906 16 5.14185 16 5.31158V5.31158Z" fill="#B48D4E"/>
</svg>
