<svg width="32" height="32" viewBox="0 0 32 32" fill="none" xmlns="http://www.w3.org/2000/svg">
<rect x="0.5" y="0.5" width="31" height="31" rx="4.5" fill="#181819" stroke="#B48D4E"/>
<path d="M16.5 8C14.7767 8.00191 13.1245 8.67682 11.9059 9.87667C10.6874 11.0765 10.0019 12.7033 10 14.4002C10 17.0042 11.9199 19.1667 13.9536 21.4556C14.5971 22.1804 15.2634 22.93 15.8565 23.6884C15.9324 23.7854 16.0299 23.8639 16.1414 23.9179C16.253 23.9719 16.3757 24 16.5 24C16.6243 24 16.747 23.9719 16.8586 23.9179C16.9701 23.8639 17.0676 23.7854 17.1435 23.6884C17.7366 22.93 18.4029 22.1804 19.0464 21.4556C21.0801 19.1667 23 17.0042 23 14.4002C22.9981 12.7033 22.3126 11.0765 21.0941 9.87667C19.8755 8.67682 18.2233 8.00191 16.5 8ZM16.5 16.8002C16.0179 16.8002 15.5466 16.6595 15.1458 16.3957C14.745 16.132 14.4325 15.7572 14.248 15.3186C14.0636 14.8801 14.0153 14.3975 14.1093 13.9319C14.2034 13.4664 14.4355 13.0387 14.7764 12.7031C15.1173 12.3674 15.5516 12.1388 16.0245 12.0462C16.4973 11.9536 16.9874 12.0011 17.4328 12.1828C17.8782 12.3645 18.2589 12.6721 18.5267 13.0668C18.7945 13.4615 18.9375 13.9255 18.9375 14.4002C18.9375 15.0367 18.6807 15.6472 18.2236 16.0973C17.7665 16.5474 17.1465 16.8002 16.5 16.8002Z" fill="#B48D4E"/>
</svg>
