<svg width="98" height="98" viewBox="0 0 98 98" fill="none" xmlns="http://www.w3.org/2000/svg">
<circle cx="49" cy="49" r="48.5" stroke="#B48D4E"/>
<path fill-rule="evenodd" clip-rule="evenodd" d="M37.4027 69H61.7463C63.5632 68.655 64.5619 67.5057 64.94 65.7486C64.9853 65.5385 64.9851 65.3246 64.9849 65.1114L64.9849 65.0714C64.9849 63.0964 64.9851 61.1215 64.9854 59.1467L64.9854 59.1466C64.9858 55.197 64.9863 51.2477 64.9849 47.2978C64.9849 45.0142 63.2342 43.2667 60.9506 43.2592C60.2243 43.2571 59.8611 42.8993 59.8611 42.1858V38.3031C59.8611 33.566 56.7187 29.4623 52.1492 28.2222C51.8569 28.1429 51.5589 28.1132 51.261 28.0835C51.045 28.0619 50.8291 28.0404 50.6154 28H48.5336C47.4719 28.0417 46.4465 28.2542 45.4809 28.6986C41.8664 30.3616 39.7141 33.1377 39.211 37.1068C39.0651 38.2557 39.0901 39.4128 39.1151 40.57C39.1282 41.1752 39.1412 41.7804 39.1298 42.3844C39.128 42.482 39.1275 42.569 39.1271 42.6467C39.1254 42.9513 39.1245 43.1113 39.0441 43.192C38.9551 43.2812 38.7687 43.2732 38.376 43.2565C38.3323 43.2546 38.2859 43.2527 38.2369 43.2507C36.1594 43.1685 34.3895 44.5933 34.0477 46.6206C34.0146 46.8193 34.0028 47.018 34.0028 47.2188C34.0028 48.8417 34.0021 50.4645 34.0014 52.0874C33.9995 56.4151 33.9976 60.7427 34.0092 65.0704C34.0135 66.7569 34.8082 67.9885 36.3239 68.7511C36.5513 68.8655 36.7927 68.9006 37.034 68.9356C37.1576 68.9535 37.2811 68.9714 37.4027 69ZM51.0136 43.3739L51.0183 43.3739H51.0184C52.6554 43.3729 54.292 43.372 55.9293 43.3809C56.2209 43.382 56.3352 43.3371 56.3299 43.0028C56.3169 42.064 56.3185 41.1248 56.3201 40.1857V40.1857C56.3211 39.5766 56.3221 38.9675 56.3192 38.3586C56.3032 34.7879 53.9148 32.0203 50.3836 31.4713C46.878 30.9255 43.3148 33.5456 42.7636 37.0619C42.6567 37.742 42.6625 38.4234 42.6683 39.105C42.6703 39.3429 42.6724 39.5808 42.6696 39.8187C42.6647 40.255 42.6665 40.6912 42.6682 41.1275V41.1277C42.6706 41.7456 42.6731 42.3635 42.6568 42.9814C42.6482 43.3307 42.7593 43.3852 43.0766 43.3831C44.678 43.3718 46.2794 43.3732 47.8808 43.3746C48.4146 43.3751 48.9484 43.3756 49.4821 43.3756L49.4832 43.3745C49.9934 43.3745 50.5035 43.3742 51.0136 43.3739ZM51.1982 58.4608C51.1968 58.5412 51.1954 58.6215 51.1954 58.7018H51.1943V59.3021C51.1937 59.4358 51.1947 59.5697 51.1957 59.7036C51.1979 59.9967 51.2001 60.2899 51.1847 60.5817C51.1398 61.4693 50.3825 62.1689 49.4928 62.1689C48.602 62.1689 47.8276 61.4715 47.8052 60.5817C47.7753 59.3961 47.7849 58.2083 47.7977 57.0216C47.8009 56.7183 47.7218 56.5271 47.4602 56.3348C45.8783 55.1749 45.6176 52.9767 46.8567 51.4567C48.0679 49.9709 50.2939 49.7883 51.7423 51.0562C53.1971 52.3294 53.3776 54.6237 51.9495 55.9119C51.2573 56.5367 51.1431 57.1509 51.1933 57.9424C51.2042 58.1145 51.2012 58.2877 51.1982 58.4608Z" fill="#B48D4E"/>
</svg>
