<svg width="32" height="32" viewBox="0 0 32 32" fill="none" xmlns="http://www.w3.org/2000/svg">
<rect x="0.5" y="0.5" width="31" height="31" rx="4.5" fill="#181819" stroke="#B48D4E"/>
<path d="M8.00046 13.3335C8.97649 13.9273 9.95345 14.5202 10.929 15.115C12.4279 16.0292 13.9281 16.9421 15.4233 17.8628C15.8115 18.1016 16.1743 18.0966 16.5616 17.8596C18.9945 16.3709 21.4312 14.8891 23.8664 13.4045C23.9015 13.3833 23.9374 13.3639 23.9798 13.34C24.0121 13.3888 23.996 13.4409 23.996 13.4889C23.9969 15.4414 23.9973 17.3944 23.9964 19.3469C23.996 20.7549 22.9803 21.7858 21.5709 21.7881C17.8581 21.7932 14.1453 21.7868 10.4329 21.7914C9.07101 21.7932 8.14707 20.7983 8.02444 19.7429C8.02305 19.73 8.0083 19.719 8 19.707C8 17.5825 8 15.458 8 13.3335H8.00046Z" fill="#B48D4E"/>
<path d="M16.0091 10.0008C17.857 10.0008 19.7049 9.99849 21.5527 10.0017C22.4942 10.0036 23.2102 10.4088 23.6855 11.2263C23.7879 11.4019 23.9064 11.5951 23.8921 11.7887C23.8759 12.0054 23.6155 12.034 23.4587 12.1304C21.0161 13.6311 18.5684 15.123 16.1239 16.6205C16.0331 16.6763 15.975 16.6698 15.8888 16.6173C13.3272 15.0529 10.7638 13.4904 8.19902 11.9312C8.10266 11.8726 8.07961 11.821 8.11142 11.7094C8.40326 10.6795 9.32167 10.0026 10.4498 10.0013C12.3028 9.99941 14.1562 10.0008 16.0091 10.0008Z" fill="#B48D4E"/>
</svg>
