<svg width="98" height="98" viewBox="0 0 98 98" fill="none" xmlns="http://www.w3.org/2000/svg">
<circle cx="49" cy="49" r="48.5" stroke="#B48D4E"/>
<path d="M21.7793 41.2793C23.9477 42.5986 26.1181 43.9158 28.2855 45.2371C31.6154 47.2682 34.9483 49.2962 38.27 51.3417C39.1325 51.8723 39.9386 51.861 40.7989 51.3345C46.204 48.0272 51.6173 44.7352 57.0274 41.437C57.1053 41.3899 57.1852 41.3469 57.2794 41.2936C57.3511 41.4022 57.3152 41.518 57.3152 41.6245C57.3173 45.9622 57.3183 50.301 57.3163 54.6388C57.3152 57.7669 55.0588 60.0572 51.9276 60.0623C43.6792 60.0736 35.4308 60.0592 27.1834 60.0695C24.1577 60.0736 22.1051 57.8632 21.8326 55.5186C21.8295 55.49 21.7968 55.4654 21.7783 55.4388C21.7783 50.7189 21.7783 45.9991 21.7783 41.2793H21.7793Z" fill="#B48D4E"/>
<path d="M39.5712 33.8768C43.6765 33.8768 47.7817 33.8717 51.887 33.8788C53.9785 33.8829 55.5692 34.7832 56.6252 36.5993C56.8526 36.9895 57.1159 37.4187 57.0841 37.8489C57.0483 38.3303 56.4696 38.3938 56.1213 38.6079C50.6947 41.9418 45.2569 45.2564 39.8263 48.5832C39.6245 48.7071 39.4954 48.6928 39.3039 48.576C33.6131 45.1007 27.9181 41.6294 22.2201 38.1654C22.0061 38.0353 21.9549 37.9206 22.0255 37.6727C22.6739 35.3845 24.7142 33.8809 27.2206 33.8778C31.3371 33.8737 35.4547 33.8768 39.5712 33.8768Z" fill="#B48D4E"/>
<rect x="46.0522" y="48.9648" width="30.6256" height="13.4179" rx="3" fill="#181819"/>
<path d="M52.8314 54.1884L53.4591 55.2818L51.8272 55.8528L53.4591 56.4239L52.8063 57.5537L51.4506 56.4725L51.7393 58.1491H50.4338L50.71 56.4725L49.3668 57.578L48.6764 56.4117L50.3083 55.8407L48.6889 55.294L49.3291 54.1763L50.7225 55.2454L50.4338 53.5566H51.7519L51.4506 55.2454L52.8314 54.1884Z" fill="#B48D4E"/>
<path d="M59.3286 54.1884L59.9562 55.2818L58.3244 55.8528L59.9562 56.4239L59.3035 57.5537L57.9478 56.4725L58.2365 58.1491H56.931L57.2071 56.4725L55.864 57.578L55.1735 56.4117L56.8054 55.8407L55.1861 55.294L55.8263 54.1763L57.2197 55.2454L56.931 53.5566H58.249L57.9478 55.2454L59.3286 54.1884Z" fill="#B48D4E"/>
<path d="M65.8258 54.1884L66.4534 55.2818L64.8215 55.8528L66.4534 56.4239L65.8007 57.5537L64.4449 56.4725L64.7337 58.1491H63.4281L63.7043 56.4725L62.3611 57.578L61.6707 56.4117L63.3026 55.8407L61.6833 55.294L62.3235 54.1763L63.7169 55.2454L63.4281 53.5566H64.7462L64.4449 55.2454L65.8258 54.1884Z" fill="#B48D4E"/>
<path d="M72.3229 54.1884L72.9506 55.2818L71.3187 55.8528L72.9506 56.4239L72.2978 57.5537L70.9421 56.4725L71.2308 58.1491H69.9253L70.2015 56.4725L68.8583 57.578L68.1679 56.4117L69.7998 55.8407L68.1804 55.294L68.8206 54.1763L70.214 55.2454L69.9253 53.5566H71.2434L70.9421 55.2454L72.3229 54.1884Z" fill="#B48D4E"/>
</svg>
