<svg width="26" height="18" viewBox="0 0 26 18" fill="none" xmlns="http://www.w3.org/2000/svg">
<path d="M12.6 7.929L24.102 0.54C23.6395 0.193153 23.078 0.00387095 22.5 0H2.69996C2.12192 0.00387095 1.56039 0.193153 1.09796 0.54L12.6 7.929Z" fill="#B48D4E"/>
<path d="M13.086 9.75618L12.933 9.82818H12.861C12.7781 9.8652 12.6901 9.88948 12.6 9.90018C12.5253 9.90959 12.4497 9.90959 12.375 9.90018H12.303L12.15 9.82818L0.0899999 2.03418C0.0323803 2.25157 0.00214623 2.4753 0 2.70018V15.3002C0 16.0163 0.284464 16.703 0.790812 17.2094C1.29716 17.7157 1.98392 18.0002 2.7 18.0002H22.5C23.2161 18.0002 23.9028 17.7157 24.4092 17.2094C24.9155 16.703 25.2 16.0163 25.2 15.3002V2.70018C25.1979 2.4753 25.1676 2.25157 25.11 2.03418L13.086 9.75618Z" fill="#B48D4E"/>
</svg>
