<svg width="18" height="16" viewBox="0 0 18 16" fill="none" xmlns="http://www.w3.org/2000/svg">
<path d="M17.8347 8.63255C12.7328 8.63746 7.63577 8.63746 2.53382 8.63255C2.39142 8.63255 2.33741 8.68165 2.29321 8.80932C1.77271 10.3905 1.24729 11.9667 0.721873 13.543C0.486172 14.255 0.250472 14.967 0.0147705 15.679C0.0736958 15.7183 0.132621 15.7036 0.181725 15.7036C5.29349 15.7036 10.4053 15.7036 15.5219 15.7085C15.6496 15.7085 15.6987 15.6692 15.738 15.5514C16.4795 13.3073 17.2259 11.0632 17.9772 8.81915C18.0312 8.65219 17.9919 8.63255 17.8347 8.63255Z" fill="#B48D4E"/>
<path d="M6.44255 7.8567C7.95496 7.85179 9.46738 7.85179 10.9798 7.85179C12.4873 7.85179 13.9948 7.85179 15.4974 7.8567C15.6398 7.8567 15.6742 7.81742 15.6742 7.67501C15.6693 6.22152 15.6693 4.76803 15.6742 3.31454C15.6742 3.16723 15.6349 3.13777 15.4925 3.13777C14.8001 3.14268 14.1077 3.14268 13.4154 3.14268C12.8458 3.14268 12.5364 2.82841 12.5364 2.25389C12.5364 1.56152 12.5315 0.869147 12.5413 0.171865C12.5413 0.0392835 12.5168 0 12.3744 0C10.3955 0.00491044 8.41655 0.00491044 6.44255 0C6.29524 0 6.26086 0.0441939 6.26086 0.181686C6.26577 2.6811 6.26577 5.1756 6.26086 7.67501C6.26577 7.81742 6.29524 7.8567 6.44255 7.8567ZM7.60141 3.61899C7.6898 3.54042 7.80274 3.53551 7.91077 3.53551C8.53931 3.53551 9.17275 3.53551 9.80129 3.53551C10.4446 3.53551 11.0878 3.5306 11.7262 3.53551C12.0012 3.53551 12.1632 3.70738 12.1436 3.95781C12.1288 4.17387 11.9668 4.31627 11.7164 4.31627C11.0436 4.31627 10.3709 4.31627 9.69817 4.31627C9.08437 4.31627 8.47547 4.31627 7.86167 4.31627C7.66525 4.31627 7.52285 4.21316 7.46883 4.0462C7.41482 3.87433 7.46392 3.73684 7.60141 3.61899ZM7.91568 5.10194C8.28396 5.10194 8.65225 5.10194 9.01562 5.10194C9.37899 5.10194 9.75219 5.10194 10.1156 5.10194C10.3955 5.10194 10.5771 5.25417 10.582 5.48987C10.587 5.73048 10.4004 5.89252 10.1156 5.89252C9.37899 5.89252 8.64734 5.89252 7.91077 5.89252C7.62597 5.89252 7.43937 5.72557 7.44428 5.48987C7.4541 5.25417 7.63088 5.10685 7.91568 5.10194Z" fill="#B48D4E"/>
<path d="M0.00491044 13.1109C0.0687461 13.0667 0.0736566 13.0077 0.0883879 12.9586C0.284805 12.3743 0.481223 11.79 0.67273 11.2007C0.977177 10.2825 1.28162 9.36911 1.59098 8.45086C1.72847 8.03839 1.95435 7.86652 2.39138 7.85179C2.57307 7.84197 2.75967 7.83706 2.94135 7.85179C3.09358 7.86161 3.14268 7.83215 3.14268 7.66028C3.13286 6.08403 3.13777 4.50778 3.14268 2.93153C3.14268 2.78422 3.11322 2.73511 2.95608 2.74002C2.04274 2.74984 1.1294 2.74984 0.216059 2.74002C0.0343731 2.74002 0 2.78913 0 2.96099C0.00491044 6.27554 0.00491044 9.58517 0.00491044 12.8997C0.00491044 12.9685 0.00491044 13.0323 0.00491044 13.1109Z" fill="#B48D4E"/>
<path d="M4.05598 7.8567C4.47827 7.85179 4.90057 7.84688 5.32287 7.8567C5.46527 7.86161 5.48982 7.81741 5.48982 7.68483C5.48491 6.63891 5.48491 5.58808 5.48491 4.54215C5.48491 3.47659 5.48491 2.41102 5.48982 1.34055C5.48982 1.21779 5.46527 1.17359 5.33269 1.1785C4.91039 1.18832 4.4881 1.18832 4.0658 1.1785C3.94304 1.1785 3.91357 1.21288 3.91357 1.33073C3.91848 3.45695 3.91848 5.58317 3.91357 7.7143C3.91357 7.82724 3.94795 7.8567 4.05598 7.8567Z" fill="#B48D4E"/>
<path d="M13.4595 2.36192C14.1813 2.36192 14.9032 2.36192 15.6005 2.36192C14.8443 1.6008 14.0782 0.834775 13.322 0.0785675C13.322 0.78076 13.322 1.51733 13.322 2.24898C13.322 2.36192 13.3809 2.36192 13.4595 2.36192Z" fill="#B48D4E"/>
</svg>
