<svg width="32" height="32" viewBox="0 0 32 32" fill="none" xmlns="http://www.w3.org/2000/svg">
<rect x="0.5" y="0.5" width="31" height="31" rx="4.5" fill="#181819" stroke="#B48D4E"/>
<path d="M20.7103 22.9994C19.5472 22.9871 18.4536 22.6696 17.4251 22.1621C14.1119 20.5271 11.6084 18.0548 9.92547 14.7653C9.38991 13.7182 9.03548 12.6077 9.00239 11.4164C8.97435 10.4012 9.1869 9.45837 9.95576 8.73429C10.4212 8.29569 10.9568 7.96534 11.6387 8.00291C12.1277 8.02984 12.5422 8.23343 12.8271 8.62492C13.3957 9.40453 13.9571 10.1914 14.4842 10.9991C14.9564 11.7226 14.7596 12.6688 14.072 13.1949C13.878 13.3435 13.6795 13.4888 13.4709 13.6167C13.3217 13.7081 13.2965 13.7709 13.4075 13.9274C14.2106 15.057 15.1398 16.0727 16.1504 17.0172C16.765 17.5915 17.4133 18.1238 18.1008 18.6095C18.2214 18.6948 18.2747 18.6875 18.3532 18.5635C18.4951 18.3392 18.6493 18.1216 18.8131 17.9124C19.3509 17.2236 20.3037 17.0464 21.031 17.5298C21.8117 18.0481 22.5788 18.5882 23.3354 19.1407C23.9579 19.5955 24.1609 20.3791 23.8687 21.0925C23.4329 22.1576 22.6159 22.7386 21.5032 22.9389C21.2402 22.986 20.9744 22.9933 20.7086 23L20.7103 22.9994Z" fill="#B48D4E"/>
</svg>
