<svg width="18" height="20" viewBox="0 0 18 20" fill="none" xmlns="http://www.w3.org/2000/svg">
<path d="M14.2592 17.3633C13.9838 17.3734 13.7084 17.3684 13.4331 17.3684C12.9774 17.3633 12.667 17.118 12.5469 16.6774C12.5168 16.5623 12.4868 16.4471 12.4568 16.332C12.4317 16.2418 12.3816 16.1818 12.2915 16.1417C11.8309 15.9264 11.8309 15.9264 11.3853 16.1768C11.3603 16.1918 11.3302 16.2068 11.3002 16.2218C10.9247 16.4071 10.5642 16.352 10.2688 16.0666C10.0886 15.8914 9.91333 15.7161 9.73809 15.5359C9.45271 15.2355 9.39764 14.87 9.58289 14.4995C9.64797 14.3693 9.72307 14.2492 9.79317 14.124C9.83823 14.0439 9.84324 13.9638 9.8132 13.8737C9.63295 13.393 9.63295 13.393 9.14229 13.2628C9.11726 13.2578 9.1473 13.2628 9.12227 13.2578C8.68167 13.1377 8.44135 12.8323 8.43134 12.3716C8.42633 12.1513 8.43134 11.936 8.43134 11.7158C8.43634 11.2001 8.66665 10.8746 9.16733 10.7795C9.49276 10.7144 9.68803 10.5692 9.77815 10.2488C9.8182 10.1086 9.84324 9.98843 9.75812 9.85826C9.69303 9.75812 9.63295 9.65298 9.58289 9.54784C9.39764 9.17734 9.4477 8.80684 9.73309 8.51144C9.90832 8.3312 10.0836 8.15597 10.2638 7.98073C10.5692 7.68533 10.9397 7.63026 11.3152 7.82552C11.4354 7.89061 11.5555 7.9607 11.6757 8.02579C11.7508 8.06585 11.8259 8.07586 11.911 8.05083C12.2314 7.95069 12.5268 7.82552 12.5319 7.41497C12.5319 7.40496 12.5369 7.38994 12.5419 7.37992C12.662 6.9193 12.9775 6.67397 13.4531 6.66897C13.7235 6.66396 13.9888 6.66396 14.2592 6.67397C14.3793 6.67898 14.4294 6.62391 14.4344 6.50875C14.4344 6.46369 14.4394 6.42364 14.4394 6.37858C14.4394 4.86654 14.4394 3.3495 14.4394 1.83747C14.4394 1.6372 14.4194 1.43693 14.3443 1.24668C14.0739 0.530714 13.6033 0.0650875 12.8122 0C9.06719 0 5.32216 0 1.57211 0C1.40189 0.0350471 1.22164 0.0300404 1.05141 0.115155C0.450606 0.420565 0.0550741 0.876178 0 1.57712C0 6.93432 0 12.2865 0 17.6437C0.0350471 17.819 0.0300404 17.9992 0.115155 18.1644C0.400539 18.7452 0.841131 19.1257 1.49701 19.2208C5.26708 19.2208 9.04216 19.2208 12.8122 19.2208C12.8773 19.1808 12.9474 19.2108 13.0125 19.2008C13.7134 19.1007 14.3994 18.3547 14.4294 17.5236C14.4344 17.4034 14.3793 17.3583 14.2592 17.3633ZM3.01906 3.00404C4.41594 3.00404 5.81282 3.00404 7.20969 3.00404C8.59656 3.00404 9.97842 3.00404 11.3653 3.00404C11.6607 3.00404 11.886 3.17427 11.9611 3.44964C12.0312 3.69497 11.931 3.95532 11.7107 4.10552C11.6056 4.17561 11.4854 4.20565 11.3553 4.20565C8.57153 4.20565 5.78778 4.20565 3.00905 4.20565C2.65857 4.20565 2.39322 3.9453 2.38821 3.61486C2.39322 3.2694 2.65857 3.00404 3.01906 3.00404ZM2.43828 5.79279C2.53341 5.54245 2.7487 5.40226 3.05911 5.40226C4.43596 5.40226 5.81782 5.40226 7.19467 5.40226C8.58154 5.40226 9.9634 5.40226 11.3503 5.40226C11.8059 5.40226 12.1063 5.80781 11.9511 6.21335C11.8609 6.45368 11.6407 6.60388 11.3703 6.60388C10.9698 6.60889 10.5692 6.60388 10.1737 6.60388C7.80049 6.60388 5.4323 6.60388 3.05911 6.60388C2.58347 6.60388 2.28307 6.20835 2.43828 5.79279ZM6.5438 11.4103C5.37723 11.4103 4.21066 11.4103 3.0491 11.4103C2.6736 11.4103 2.39822 11.155 2.39822 10.8095C2.39822 10.4641 2.66859 10.2087 3.04409 10.2087C3.62988 10.2087 4.21567 10.2087 4.80146 10.2087C5.38224 10.2087 5.96302 10.2087 6.53879 10.2087C6.9193 10.2087 7.18967 10.4591 7.18967 10.8095C7.19467 11.155 6.92431 11.4103 6.5438 11.4103ZM7.19467 13.2028C7.19968 13.5582 6.92431 13.8136 6.53379 13.8136C5.37222 13.8136 4.21567 13.8136 3.05411 13.8136C2.6736 13.8136 2.40323 13.5682 2.39822 13.2228C2.39322 12.8673 2.66358 12.617 3.05911 12.612C3.6449 12.612 4.23069 12.612 4.81648 12.612C5.39225 12.612 5.96302 12.612 6.53879 12.612C6.9193 12.612 7.18967 12.8573 7.19467 13.2028ZM7.71537 16.2168C6.93432 16.2168 6.15828 16.2168 5.37723 16.2168C4.6112 16.2168 3.84517 16.2168 3.07413 16.2168C2.6786 16.2168 2.40323 15.9765 2.39822 15.621C2.39322 15.2605 2.66859 15.0152 3.07914 15.0152C4.62622 15.0152 6.1733 15.0152 7.72038 15.0152C8.12092 15.0152 8.39128 15.2555 8.39629 15.606C8.39629 15.9665 8.12092 16.2168 7.71537 16.2168ZM7.7354 9.00711C6.95435 9.00711 6.17831 9.00711 5.39726 9.00711C4.61621 9.00711 3.84016 9.00711 3.05911 9.00711C2.66859 9.00711 2.39322 8.75177 2.39822 8.4013C2.40323 8.05583 2.6736 7.8105 3.05411 7.8105C4.6112 7.8105 6.1733 7.8105 7.73039 7.8105C8.12092 7.8105 8.39629 8.06585 8.39128 8.41632C8.38628 8.76178 8.11591 9.00711 7.7354 9.00711Z" fill="white"/>
<path d="M17.7689 11.7858C17.6337 11.7558 17.5035 11.7208 17.3683 11.6857C17.143 11.6256 16.9978 11.4804 16.9378 11.2601C16.8476 10.9297 16.7175 10.6143 16.5472 10.3139C16.4321 10.1136 16.4371 9.90832 16.5522 9.70805C16.6373 9.56286 16.7124 9.41266 16.8126 9.27747C16.8927 9.16733 16.8376 9.11225 16.7625 9.04716C16.6924 8.98208 16.6373 8.89196 16.5172 8.98708C16.397 9.08221 16.2518 9.15231 16.1166 9.23241C15.8913 9.36259 15.666 9.3726 15.4457 9.23742C15.1754 9.0772 14.89 8.95704 14.5896 8.88194C14.3142 8.81185 14.154 8.63661 14.0889 8.36124C14.0539 8.21104 14.0138 8.06084 13.9788 7.90563C13.9688 7.86057 13.9688 7.83053 13.9087 7.81551C13.6934 7.77045 13.6083 7.82051 13.5582 8.0308C13.5282 8.15096 13.5031 8.27613 13.4731 8.39629C13.408 8.64663 13.2578 8.81185 13.0025 8.87694C12.8022 8.93201 12.6069 8.98708 12.4267 9.08722C11.7408 9.47274 11.7308 9.40264 11.0899 9.01212C10.9797 8.94703 10.9197 8.93702 10.8245 9.03715C10.7394 9.13228 10.6994 9.19737 10.7845 9.31753C10.8796 9.4427 10.9447 9.58288 11.0248 9.71807C11.14 9.91834 11.145 10.1236 11.0298 10.3239C10.8596 10.6243 10.7294 10.9397 10.6393 11.2702C10.5792 11.4905 10.429 11.6356 10.2037 11.6907C10.0485 11.7308 9.89328 11.7758 9.73307 11.8059C9.61791 11.8259 9.59288 11.876 9.58787 11.9861C9.57786 12.1463 9.63293 12.2164 9.78814 12.2415C9.91832 12.2615 10.0435 12.2965 10.1687 12.3316C10.419 12.3967 10.5842 12.5469 10.6493 12.8022C10.7044 13.0075 10.7444 13.2278 10.8696 13.398C11.205 13.8636 11.135 14.2892 10.7945 14.7098C10.7044 14.8199 10.7194 14.895 10.8195 15.0052C10.9297 15.1203 10.9998 15.0853 11.1049 15.0202C11.2151 14.9501 11.3302 14.89 11.4404 14.8199C11.6757 14.6697 11.911 14.6747 12.1463 14.8099C12.4117 14.9651 12.692 15.0853 12.9874 15.1604C13.2678 15.2305 13.423 15.4107 13.4831 15.6861C13.5182 15.8363 13.5582 15.9865 13.5933 16.1417C13.6033 16.1868 13.6083 16.2168 13.6684 16.2318C13.8836 16.2769 13.9638 16.2318 14.0138 16.0115C14.0439 15.8864 14.0739 15.7562 14.1089 15.631C14.169 15.3907 14.3192 15.2405 14.5545 15.1754C14.875 15.0903 15.1804 14.9651 15.4658 14.7949C15.6761 14.6697 15.8964 14.6797 16.1066 14.7999C16.2518 14.885 16.397 14.9701 16.5422 15.0552C16.5823 15.0803 16.6223 15.1303 16.6724 15.0753C16.7375 15.0002 16.8276 14.9501 16.8677 14.855C16.8476 14.8199 16.8276 14.7849 16.8076 14.7548C16.7325 14.6247 16.6574 14.4945 16.5773 14.3693C16.4371 14.139 16.4271 13.9137 16.5622 13.6784C16.7225 13.408 16.8426 13.1226 16.9177 12.8172C16.9878 12.5369 17.1681 12.3816 17.4434 12.3216C17.5936 12.2865 17.7438 12.2465 17.899 12.2114C17.9441 12.2014 17.9741 12.1964 17.9842 12.1363C18.0292 11.911 17.9842 11.8359 17.7689 11.7858ZM13.7735 14.104C12.637 14.104 11.6957 13.1477 11.6957 12.0061C11.7007 10.8596 12.642 9.91834 13.7835 9.92334C14.925 9.92334 15.8763 10.8796 15.8713 12.0111C15.8663 13.1727 14.9301 14.104 13.7735 14.104Z" fill="white"/>
<path d="M13.7785 11.12C13.2929 11.13 12.8973 11.5305 12.8973 12.0111C12.8973 12.5018 13.3079 12.9074 13.7935 12.9023C14.2792 12.8973 14.6847 12.4818 14.6747 11.9961C14.6647 11.5105 14.2542 11.1099 13.7785 11.12Z" fill="white"/>
</svg>
