<svg width="16" height="10" viewBox="0 0 16 10" fill="none" xmlns="http://www.w3.org/2000/svg">
<path d="M0 5.31158C0 5.48132 0.0674285 5.64411 0.187452 5.76413C0.307475 5.88416 0.470261 5.95158 0.64 5.95158H13.175L10.4282 8.69846C10.3116 8.81917 10.2471 8.98083 10.2485 9.14864C10.25 9.31645 10.3173 9.47697 10.436 9.59563C10.5546 9.71429 10.7151 9.7816 10.8829 9.78306C11.0507 9.78451 11.2124 9.72001 11.3331 9.60342L15.1731 5.76342C15.2323 5.70455 15.2793 5.63454 15.3114 5.55744C15.3435 5.48034 15.36 5.39765 15.36 5.31414V5.31158C15.36 5.22838 15.3434 5.14518 15.3101 5.0671C15.2782 4.98951 15.2312 4.91903 15.1718 4.85974L11.3318 1.01974C11.2111 0.903162 11.0495 0.838654 10.8817 0.840112C10.7139 0.84157 10.5533 0.908878 10.4347 1.02754C10.316 1.1462 10.2487 1.30672 10.2472 1.47453C10.2458 1.64233 10.3103 1.804 10.4269 1.9247L13.175 4.67158H0.64C0.470261 4.67158 0.307475 4.73901 0.187452 4.85904C0.0674285 4.97906 0 5.14185 0 5.31158Z" fill="#B48D4E"/>
</svg>
