<svg width="20" height="14" viewBox="0 0 20 14" fill="none" xmlns="http://www.w3.org/2000/svg">
<path d="M19.1284 11.5486H19.1147L15.2866 0.898834C15.192 0.635574 15.0188 0.408008 14.7906 0.247157C14.5624 0.0863074 14.2903 0 14.0115 0C13.7327 0 13.4606 0.0863074 13.2324 0.247157C13.0042 0.408008 12.831 0.635574 12.7364 0.898834L11.9749 3.0172C11.9446 2.97302 11.914 2.92909 11.8826 2.88569C11.8675 2.85465 11.847 2.82653 11.8221 2.80267C11.0235 1.73143 9.92003 0.928366 8.65736 0.499442C8.63929 0.491423 8.62046 0.485273 8.60114 0.481086C7.27863 0.0482979 5.85333 0.0482666 4.5308 0.480998C4.51131 0.485205 4.4923 0.491412 4.47407 0.49952C3.21152 0.928461 2.10817 1.73147 1.30958 2.80263C1.28466 2.82651 1.26416 2.85465 1.24905 2.88574C0.436948 4.00727 0.000213384 5.35845 0.0016682 6.74489C0.0016682 6.74676 0.00173677 6.74862 0.00173909 6.75049C-0.000849817 6.77415 -0.000547225 6.79803 0.00264013 6.82162C0.0164825 8.15677 0.436461 9.4558 1.20632 10.5447C1.22128 10.5758 1.2416 10.6039 1.26633 10.6278C2.08374 11.7501 3.23262 12.5853 4.54984 13.015C4.56405 13.021 4.57871 13.0257 4.59368 13.0293C5.79717 13.4092 7.08415 13.4336 8.30105 13.0995C8.46209 13.2503 8.67431 13.3339 8.89458 13.3333H19.1284C19.3595 13.3331 19.581 13.2408 19.7444 13.0768C19.9078 12.9128 19.9997 12.6904 20 12.4585V12.4234C19.9997 12.1915 19.9078 11.9691 19.7444 11.8051C19.581 11.6411 19.3595 11.5489 19.1284 11.5486ZM18.497 11.5486H11.0528C11.3514 11.2675 11.6235 10.9593 11.8654 10.6278C11.8901 10.6039 11.9104 10.5758 11.9253 10.5448C12.3256 9.97824 12.6337 9.35156 12.8383 8.6881H17.4688L18.497 11.5486ZM9.21226 6.41441L10.8337 5.67758L12.546 6.92624C12.5128 8.07077 12.1524 9.18158 11.5077 10.1262H9.35838L8.38177 8.97986L9.21226 6.41441ZM7.84406 8.75356H5.28762L4.49764 6.31325L6.56583 4.80507L8.63404 6.31325L7.84406 8.75356ZM17.2592 8.10489H12.9888C13.0773 7.68277 13.1242 7.25295 13.129 6.82162C13.1322 6.79804 13.1325 6.77415 13.1299 6.75049C13.13 6.74862 13.13 6.74676 13.13 6.74489C13.13 6.61409 13.1262 6.48421 13.1186 6.35525H16.6302L17.2592 8.10489ZM13.2829 1.09677C13.337 0.946353 13.436 0.816331 13.5664 0.724428C13.6967 0.632524 13.8522 0.583212 14.0115 0.583212C14.1708 0.583212 14.3263 0.632524 14.4566 0.724428C14.587 0.816331 14.686 0.946353 14.74 1.09677L16.4206 5.77204H13.0583C12.9487 5.03225 12.7134 4.31683 12.3627 3.65692L13.2829 1.09677ZM12.5231 6.18863L11.2093 5.23059L11.7105 3.68237C12.1642 4.44649 12.4418 5.30283 12.5231 6.18863ZM11.2968 3.07302L10.6311 5.12943L9.00965 5.86628L6.85637 4.29606V2.3535L8.58591 1.09228C9.65846 1.481 10.5987 2.168 11.2968 3.07302ZM6.56583 0.739684C7.00799 0.739547 7.4488 0.788623 7.88018 0.886014L6.56583 1.84447L5.2515 0.886012C5.68288 0.788623 6.12368 0.739547 6.56583 0.739684ZM4.54579 1.09227L6.2753 2.35348V4.29606L4.12204 5.86628L2.50062 5.12943L1.83492 3.07303C2.53299 2.16799 3.47322 1.48099 4.54579 1.09227ZM1.42122 3.68239L1.9224 5.23059L0.608632 6.18864C0.689842 5.30284 0.967488 4.44651 1.42122 3.68239ZM1.62397 10.1262C0.979256 9.18158 0.61884 8.07076 0.585701 6.92623L2.29802 5.67758L3.91942 6.41441L4.74991 8.97986L3.77329 10.1262H1.62397ZM2.07598 10.7094H3.69603L4.19775 12.2592C3.38542 11.9058 2.66091 11.3765 2.07598 10.7094ZM8.2418 12.51C7.14727 12.8302 5.98443 12.8302 4.8899 12.51L4.23374 10.4831L5.21036 9.33677H7.92132L8.89793 10.4831L8.2418 12.51ZM9.43564 10.7094H11.0557C10.4708 11.3765 9.74625 11.9057 8.93392 12.2592L9.43564 10.7094ZM19.4189 12.4585C19.4188 12.5358 19.3882 12.6099 19.3337 12.6646C19.2793 12.7193 19.2054 12.75 19.1284 12.7501H9.2635C9.64099 12.5786 10.0014 12.3715 10.34 12.1318H18.9097L18.9107 12.1319C18.9113 12.1319 18.9119 12.1318 18.9125 12.1318H19.1284C19.2054 12.1319 19.2793 12.1626 19.3337 12.2173C19.3882 12.272 19.4188 12.3461 19.4189 12.4234V12.4585Z" fill="#EB1829"/>
</svg>
