<svg width="30" height="32" viewBox="0 0 30 32" fill="none" xmlns="http://www.w3.org/2000/svg">
<path d="M28.6993 10.9111C26.5041 2.44635 17.4626 -2.17671 9.36061 1.01386C2.43066 3.74862 -1.30871 11.3576 0.756317 18.5201C1.47257 20.9851 2.75623 23.1152 4.62592 24.9477C4.71894 23.7478 5.24915 22.892 6.33748 22.492C7.4351 22.0827 8.40251 22.3804 9.22108 23.2176C10.1234 24.1385 11.035 25.0501 11.9558 25.9523C12.7279 26.7151 12.9791 27.6174 12.7 28.6592C12.6442 28.8731 12.7 28.8824 12.8767 28.9011C14.4209 29.0964 15.9557 29.0313 17.4812 28.7429C25.5553 27.2081 30.7737 18.9201 28.6993 10.9111ZM14.2627 13.3947C14.7929 13.4133 15.3324 13.3575 15.8534 13.4691C17.3696 13.7947 18.5323 15.097 18.6346 16.5946C18.7463 18.241 17.7975 19.72 16.2626 20.2037C15.872 20.3247 15.751 20.4735 15.7696 20.8735C15.7975 21.3944 15.4441 21.813 14.9604 21.9525C14.5046 22.0827 13.993 21.8874 13.7232 21.4688C13.5651 21.2177 13.5279 20.9479 13.5558 20.6688C13.5744 20.4642 13.5186 20.3805 13.2953 20.3898C12.3279 20.427 11.5931 19.9433 10.9605 19.2642C10.5513 18.8271 10.6071 18.1294 11.0443 17.7294C11.4907 17.3201 12.207 17.3201 12.5977 17.7852C12.8488 18.0829 13.1279 18.1852 13.5093 18.1666C14.0395 18.1387 14.579 18.1666 15.1092 18.1573C15.8534 18.148 16.4022 17.6178 16.4115 16.9109C16.4208 16.176 15.872 15.6365 15.1092 15.6272C14.393 15.6179 13.6767 15.6644 12.9791 15.3946C11.5466 14.8551 10.6629 13.525 10.7001 11.9529C10.7373 10.5204 11.7326 9.19025 13.1372 8.77167C13.4907 8.66935 13.5744 8.53912 13.5651 8.19495C13.5465 7.35777 14.272 6.80896 15.0255 7.06011C15.4999 7.21824 15.7975 7.65544 15.7696 8.23215C15.7603 8.53912 15.8441 8.60423 16.1417 8.60423C17.1184 8.62284 17.8626 9.11584 18.4486 9.85069C18.8021 10.2879 18.6718 10.9669 18.2253 11.3204C17.7789 11.6832 17.1184 11.6739 16.7463 11.2367C16.458 10.8925 16.1324 10.7995 15.7138 10.8181C15.2022 10.8367 14.6906 10.8181 14.179 10.8274C13.4442 10.846 12.9046 11.4041 12.9139 12.1204C12.9325 12.8552 13.4814 13.3761 14.2627 13.3947Z" fill="#1BC5BD"/>
<path d="M7.97459 24.092C7.5467 23.6734 6.88626 23.7199 6.46767 24.1385C6.05839 24.5477 6.02118 25.2082 6.41186 25.6547C6.70022 25.9802 7.01649 26.2686 7.31415 26.5756C7.36996 26.6314 7.49089 26.6686 7.43507 26.7988C7.25834 26.7988 7.0816 26.7988 6.91417 26.7988C5.07238 26.7988 3.2306 26.7988 1.37952 26.7988C0.830701 26.7988 0.430718 27.0593 0.263283 27.5244C-0.0157746 28.2964 0.542341 29.0313 1.42603 29.0313C3.26781 29.0406 5.10959 29.0313 6.96068 29.0313C7.11881 29.0313 7.27694 29.0313 7.44438 29.0313C7.45368 29.0592 7.47228 29.0871 7.48158 29.115C7.31415 29.2731 7.13741 29.422 6.97928 29.5894C6.80254 29.7568 6.62581 29.9336 6.46767 30.1103C6.03978 30.5754 6.04909 31.2451 6.47697 31.673C6.89556 32.0916 7.5746 32.1195 8.01179 31.6916C9.03501 30.6963 10.0396 29.6824 11.0349 28.6592C11.4535 28.2313 11.4628 27.5988 11.0535 27.1802C10.0303 26.1291 9.0071 25.1059 7.97459 24.092Z" fill="#1BC5BD"/>
</svg>
