<svg width="32" height="32" viewBox="0 0 32 32" fill="none" xmlns="http://www.w3.org/2000/svg">
<path d="M11.7133 16.0579C11.7133 16.7264 11.7241 16.7372 12.3818 16.7372C13.1689 16.748 13.9668 16.651 14.7324 16.9637C15.2284 17.1685 15.4225 17.0283 15.4225 16.4784C15.4225 14.8611 15.4225 13.2437 15.4225 11.6263C15.4225 10.947 15.6274 10.7529 16.3174 10.7529C17.7192 10.7529 19.1101 10.7529 20.5119 10.7529C21.1912 10.7529 21.396 10.9578 21.396 11.6479C21.396 13.6858 21.4068 15.7129 21.3852 17.7508C21.3852 18.0743 21.4931 18.2576 21.795 18.3438C22.1077 18.4301 22.3988 18.5918 22.6252 18.8183C22.8085 19.0016 22.9487 18.9692 23.1428 18.8398C23.8544 18.3438 24.5769 17.8478 25.2993 17.3626C25.515 17.2224 25.5904 17.0607 25.5904 16.8019C25.5797 15.1737 25.5797 13.5456 25.5797 11.9174C25.5797 10.3 25.5797 8.68265 25.5797 7.06527C25.5797 6.79571 25.515 6.59084 25.3101 6.38597C23.283 4.35885 21.2558 2.32094 19.2179 0.283042C18.8406 -0.0943474 18.7759 -0.0943474 18.4093 0.283042C16.2851 2.41799 14.1501 4.55293 12.0152 6.6771C11.7995 6.89275 11.7025 7.1084 11.7025 7.41031C11.7133 10.3 11.7133 13.179 11.7133 16.0579Z" fill="#6C95FE"/>
<path d="M31.1866 15.5943C30.076 15.0228 28.6958 15.3031 27.9626 16.3814C27.2078 17.5028 26.259 18.3654 25.116 19.0555C24.7063 19.3035 24.3289 19.6162 23.9191 19.8642C23.5957 20.0582 23.4771 20.2955 23.4878 20.6836C23.5202 21.9775 22.5174 23.142 21.2343 23.1744C19.1964 23.2391 17.1477 23.196 15.1098 23.196C14.7001 23.196 14.4305 22.8401 14.4736 22.4735C14.5275 22.1177 14.7971 21.9128 15.2392 21.9128C17.1261 21.9128 19.0023 21.9128 20.8892 21.9128C21.6656 21.9128 22.2155 21.4061 22.2263 20.7052C22.2263 19.9935 21.6872 19.4868 20.9108 19.4868C19.8218 19.4868 18.7327 19.4544 17.6437 19.4975C16.5654 19.5407 15.6381 19.2388 14.8402 18.5163C14.4521 18.1713 13.9884 18.0311 13.4708 18.0311C12.5975 18.0419 11.7241 18.0311 10.8507 18.0311C9.75087 18.0419 8.75887 18.3977 7.9394 19.1309C7.08758 19.8857 6.25732 20.6836 5.41628 21.4492C5.1575 21.6864 5.16828 21.8805 5.4055 22.1285C6.91506 23.6596 8.42461 25.2015 9.92339 26.7434C10.1283 26.9591 10.3223 27.013 10.5919 26.8512C11.131 26.5386 11.7133 26.4307 12.3279 26.4307C13.7512 26.4415 15.1745 26.4307 16.5978 26.4307C18.0319 26.4307 19.4767 26.4307 20.9108 26.4307C22.0538 26.4307 23.0458 26.0426 23.9299 25.2878C26.9383 22.7 29.4075 19.6701 31.4022 16.252C31.5748 15.9285 31.5424 15.7883 31.1866 15.5943Z" fill="#6C95FE"/>
<path d="M10.3008 29.0078C7.92861 26.5925 5.55645 24.1664 3.19507 21.7403C2.93629 21.4708 2.73142 21.4384 2.46186 21.7188C1.75021 22.4304 1.00621 23.1205 0.283783 23.8214C-0.0504761 24.1448 -0.0504761 24.2419 0.283783 24.5761C2.73142 26.9806 5.16828 29.3852 7.61592 31.7897C7.88548 32.0592 8.07957 32.0808 8.34913 31.7897C8.99609 31.0888 9.66461 30.4095 10.3223 29.7194C10.4086 29.6224 10.5272 29.5361 10.5164 29.3744C10.5272 29.2018 10.4086 29.1048 10.3008 29.0078ZM4.56446 25.9455C4.29489 26.1935 3.93907 26.1827 3.62637 25.8916C3.20586 25.4927 2.8069 25.0829 2.39716 24.6624C2.1923 24.4575 2.11682 24.2095 2.24621 23.9292C2.35403 23.6812 2.54812 23.5626 2.77455 23.541C3.01177 23.5302 3.17351 23.6165 3.31368 23.7567C3.72342 24.1664 4.13315 24.5653 4.53211 24.9859C4.8448 25.2986 4.8448 25.6867 4.56446 25.9455Z" fill="#6C95FE"/>
<path d="M19.5953 12.0468C18.7974 12.0576 18.0103 12.0684 17.2124 12.0468C16.8242 12.036 16.6948 12.1978 16.6948 12.5752C16.7164 13.4593 16.6948 14.3543 16.6948 15.2385C16.6948 16.0364 16.6841 16.8235 16.6948 17.6214C16.7056 18.085 16.8134 18.1929 17.2663 18.1929C18.0427 18.1929 18.8298 18.1821 19.6061 18.1929C19.9512 18.1929 20.0806 18.0527 20.0806 17.7077C20.0698 16.8451 20.0806 15.9824 20.0806 15.1198C20.0806 14.2572 20.0698 13.3946 20.0806 12.532C20.1129 12.1762 19.9619 12.0468 19.5953 12.0468Z" fill="#6C95FE"/>
</svg>
