<svg width="28" height="23" viewBox="0 0 28 23" fill="none" xmlns="http://www.w3.org/2000/svg">
<path d="M25.2683 0.00131015H3.42186C3.22965 -0.00379815 3.03731 0.00603735 2.84684 0.0307153C2.03552 0.17939 1.30586 0.590347 0.785525 1.1917C0.265186 1.79305 -0.0127112 2.5465 0.000446689 3.32026C0.00153096 4.13136 0.346231 4.90894 0.958947 5.48247C1.57166 6.05601 2.40237 6.37866 3.26888 6.37968H5.46377V20.443C5.46377 21.1212 5.75157 21.7716 6.26386 22.2511C6.77615 22.7306 7.47096 23 8.19544 23H25.2683C25.9928 23 26.6876 22.7306 27.1999 22.2511C27.7122 21.7716 28 21.1212 28 20.443V2.55956C28 1.88141 27.7122 1.23103 27.1999 0.751508C26.6876 0.271983 25.9928 0.00258855 25.2683 0.00258855V0.00131015ZM5.46377 5.10119H3.26888C2.76427 5.10051 2.28054 4.91249 1.92385 4.57837C1.56716 4.24425 1.36664 3.79133 1.36628 3.31898C1.35105 2.84793 1.51292 2.38682 1.82367 2.01603C2.13443 1.64525 2.57435 1.38831 3.06674 1.29002C3.36106 1.24295 3.66282 1.25657 3.95093 1.32996C4.23904 1.40334 4.50657 1.53471 4.73483 1.71489C4.96309 1.89507 5.14657 2.11972 5.27248 2.37316C5.39838 2.62659 5.46367 2.90269 5.46377 3.18218V5.10119ZM16.7319 18.8449H9.90273C9.63105 18.8449 9.37049 18.7439 9.17839 18.5641C8.98628 18.3843 8.87836 18.1404 8.87836 17.8861C8.87836 17.6317 8.98628 17.3879 9.17839 17.208C9.37049 17.0282 9.63105 16.9272 9.90273 16.9272H16.7319C17.0036 16.9272 17.2641 17.0282 17.4562 17.208C17.6483 17.3879 17.7563 17.6317 17.7563 17.8861C17.7563 18.1404 17.6483 18.3843 17.4562 18.5641C17.2641 18.7439 17.0036 18.8449 16.7319 18.8449ZM23.561 15.0095H9.90273C9.63105 15.0095 9.37049 14.9084 9.17839 14.7286C8.98628 14.5488 8.87836 14.3049 8.87836 14.0506C8.87836 13.7963 8.98628 13.5524 9.17839 13.3726C9.37049 13.1928 9.63105 13.0917 9.90273 13.0917H23.561C23.8327 13.0917 24.0933 13.1928 24.2854 13.3726C24.4775 13.5524 24.5854 13.7963 24.5854 14.0506C24.5854 14.3049 24.4775 14.5488 24.2854 14.7286C24.0933 14.9084 23.8327 15.0095 23.561 15.0095ZM23.561 11.174H9.90273C9.63105 11.174 9.37049 11.073 9.17839 10.8932C8.98628 10.7133 8.87836 10.4694 8.87836 10.2151C8.87836 9.96083 8.98628 9.71694 9.17839 9.53712C9.37049 9.3573 9.63105 9.25627 9.90273 9.25627H23.561C23.8327 9.25627 24.0933 9.3573 24.2854 9.53712C24.4775 9.71694 24.5854 9.96083 24.5854 10.2151C24.5854 10.4694 24.4775 10.7133 24.2854 10.8932C24.0933 11.073 23.8327 11.174 23.561 11.174ZM23.561 6.06006H9.90273C9.63105 6.06006 9.37049 5.95903 9.17839 5.77921C8.98628 5.59939 8.87836 5.3555 8.87836 5.10119C8.87836 4.84688 8.98628 4.60299 9.17839 4.42317C9.37049 4.24335 9.63105 4.14233 9.90273 4.14233H23.561C23.8327 4.14233 24.0933 4.24335 24.2854 4.42317C24.4775 4.60299 24.5854 4.84688 24.5854 5.10119C24.5854 5.3555 24.4775 5.59939 24.2854 5.77921C24.0933 5.95903 23.8327 6.06006 23.561 6.06006Z" fill="#F64E60"/>
</svg>
