<svg width="35" height="35" viewBox="0 0 35 35" fill="none" xmlns="http://www.w3.org/2000/svg">
<path d="M26.4902 0H7.69868C3.47169 0 0.0450401 3.42665 0.0450401 7.65364V26.4452C0.0450401 30.6722 3.47169 34.0988 7.69868 34.0988H26.4902C30.7172 34.0988 34.1439 30.6722 34.1439 26.4452V7.65364C34.1439 3.42665 30.7172 0 26.4902 0Z" fill="#B48D4E"/>
<path fill-rule="evenodd" clip-rule="evenodd" d="M13.9115 21.3901C13.1059 21.3701 12.3265 21.1003 11.6811 20.6178C11.0357 20.1353 10.5562 19.4641 10.3091 18.6971C10.8576 18.8186 11.426 18.8186 11.9745 18.6971C11.4557 18.5753 10.9677 18.3477 10.5409 18.0286C10.1142 17.7095 9.75779 17.3058 9.49412 16.8428C9.1084 16.2235 8.9114 15.5053 8.92718 14.7758C9.45662 15.0673 10.0476 15.2292 10.6516 15.2483C9.84096 14.6904 9.27135 13.8465 9.05711 12.8861C8.84051 11.9314 8.99684 10.93 9.49412 10.0868C10.467 11.2864 11.6798 12.2696 13.0547 12.9733C14.4297 13.677 15.9364 14.0858 17.4785 14.1735C17.4785 14.0199 17.4785 13.89 17.4194 13.7483C17.3132 12.9444 17.4619 12.1274 17.8446 11.4125C18.2273 10.6976 18.8246 10.1207 19.5525 9.76332C20.2804 9.40591 21.1021 9.2859 21.9018 9.42022C22.7015 9.55454 23.4389 9.9364 24.01 10.512C24.0348 10.5394 24.0667 10.5593 24.1021 10.5698C24.1376 10.5802 24.1752 10.5806 24.2108 10.5711C25.003 10.4026 25.7641 10.1117 26.4668 9.70885C26.1845 10.5745 25.6132 11.3168 24.8486 11.8112C25.5942 11.7284 26.3229 11.5332 27.0101 11.2325L26.6203 11.8112C26.2106 12.3142 25.7383 12.7628 25.2148 13.1459C25.1953 13.1585 25.1795 13.1761 25.1691 13.1969C25.1587 13.2177 25.1541 13.2408 25.1557 13.264C25.1784 13.8398 25.1547 14.4165 25.0849 14.9884C24.9344 16.1839 24.5956 17.3479 24.0809 18.4373C23.5595 19.5665 22.8529 20.6004 21.9903 21.4964C20.5523 22.9966 18.6963 24.0295 16.6635 24.461C15.9528 24.6154 15.2291 24.7024 14.5021 24.7208C12.3191 24.7955 10.1637 24.2155 8.313 23.0555L8.21851 22.9964C9.52825 23.1377 10.8525 22.9468 12.069 22.4413C12.7286 22.1774 13.3487 21.8237 13.9115 21.3901Z" fill="#181819"/>
</svg>
