<svg width="16" height="18" viewBox="0 0 16 18" fill="none" xmlns="http://www.w3.org/2000/svg">
<path d="M14.9395 13.4725C14.8206 12.4464 14.6048 11.4466 14.0983 10.5261C13.539 9.51756 12.711 8.89216 11.5527 8.7248C11.1299 8.66314 10.7423 8.69838 10.3856 8.96703C10.183 9.11678 9.96719 9.2445 9.75578 9.37663C8.45654 10.1826 7.11326 10.3015 5.71712 9.63647C5.29432 9.43388 4.92437 9.1432 4.52358 8.90538C4.34301 8.79527 4.15803 8.68957 3.93782 8.69397C3.35647 8.70278 2.80154 8.8261 2.28625 9.10356C1.47587 9.53958 0.9826 10.2531 0.64788 11.0722C0.0885459 12.4596 -0.0832182 13.913 0.0356954 15.3928C0.12378 16.5291 0.916537 17.4848 2.00438 17.8195C2.2334 17.89 2.47122 17.9384 2.70465 17.9957C5.88008 17.9957 9.05552 17.9957 12.2309 17.9957C12.2398 17.9692 12.2618 17.9648 12.2838 17.9648C13.9266 17.7931 14.9792 16.648 15.0056 14.9964C15.0188 14.4899 14.9968 13.979 14.9395 13.4725Z" fill="white"/>
<path d="M7.38635 8.67195C9.77784 8.68517 11.7377 6.72529 11.7289 4.33381C11.7201 1.92471 9.77784 -0.0131455 7.37754 6.71646e-05C4.97725 0.0132798 3.05261 1.94232 3.05701 4.33821C3.06142 6.73851 4.97725 8.65874 7.38635 8.67195Z" fill="white"/>
</svg>
