<svg width="18" height="16" viewBox="0 0 18 16" fill="none" xmlns="http://www.w3.org/2000/svg">
<path d="M16.2439 0.000863441H2.19976C2.0762 -0.00250313 1.95256 0.00397885 1.83011 0.0202426C1.30855 0.118225 0.839484 0.389061 0.504981 0.785375C0.170477 1.18169 -0.00817148 1.67824 0.000287157 2.18818C0.000984187 2.72272 0.222577 3.23518 0.616466 3.61316C1.01035 3.99114 1.54438 4.20379 2.10142 4.20446H3.51243V13.4728C3.51243 13.9197 3.69744 14.3483 4.02677 14.6643C4.35609 14.9804 4.80276 15.1579 5.2685 15.1579H16.2439C16.7097 15.1579 17.1563 14.9804 17.4857 14.6643C17.815 14.3483 18 13.9197 18 13.4728V1.68685C18 1.23992 17.815 0.811299 17.4857 0.495273C17.1563 0.179247 16.7097 0.00170595 16.2439 0.00170595V0.000863441ZM3.51243 3.36188H2.10142C1.77703 3.36144 1.46606 3.23752 1.23676 3.01732C1.00746 2.79713 0.878554 2.49863 0.878322 2.18734C0.868531 1.8769 0.972592 1.57301 1.17236 1.32864C1.37213 1.08428 1.65494 0.914953 1.97148 0.850176C2.16068 0.81915 2.35467 0.828131 2.53988 0.876494C2.7251 0.924856 2.89708 1.01143 3.04382 1.13018C3.19056 1.24893 3.30851 1.39698 3.38945 1.564C3.47039 1.73102 3.51236 1.91299 3.51243 2.09718V3.36188ZM10.7562 12.4195H6.36604C6.19139 12.4195 6.02389 12.353 5.90039 12.2344C5.77689 12.1159 5.70751 11.9552 5.70751 11.7876C5.70751 11.62 5.77689 11.4593 5.90039 11.3408C6.02389 11.2223 6.19139 11.1557 6.36604 11.1557H10.7562C10.9309 11.1557 11.0984 11.2223 11.2219 11.3408C11.3454 11.4593 11.4147 11.62 11.4147 11.7876C11.4147 11.9552 11.3454 12.1159 11.2219 12.2344C11.0984 12.353 10.9309 12.4195 10.7562 12.4195V12.4195ZM15.1464 9.89182H6.36604C6.19139 9.89182 6.02389 9.82524 5.90039 9.70673C5.77689 9.58822 5.70751 9.42749 5.70751 9.25989C5.70751 9.09229 5.77689 8.93156 5.90039 8.81305C6.02389 8.69454 6.19139 8.62796 6.36604 8.62796H15.1464C15.321 8.62796 15.4885 8.69454 15.612 8.81305C15.7355 8.93156 15.8049 9.09229 15.8049 9.25989C15.8049 9.42749 15.7355 9.58822 15.612 9.70673C15.4885 9.82524 15.321 9.89182 15.1464 9.89182ZM15.1464 7.3641H6.36604C6.19139 7.3641 6.02389 7.29752 5.90039 7.17901C5.77689 7.0605 5.70751 6.89977 5.70751 6.73217C5.70751 6.56458 5.77689 6.40384 5.90039 6.28533C6.02389 6.16682 6.19139 6.10024 6.36604 6.10024H15.1464C15.321 6.10024 15.4885 6.16682 15.612 6.28533C15.7355 6.40384 15.8049 6.56458 15.8049 6.73217C15.8049 6.89977 15.7355 7.0605 15.612 7.17901C15.4885 7.29752 15.321 7.3641 15.1464 7.3641ZM15.1464 3.99381H6.36604C6.19139 3.99381 6.02389 3.92724 5.90039 3.80873C5.77689 3.69022 5.70751 3.52948 5.70751 3.36188C5.70751 3.19429 5.77689 3.03355 5.90039 2.91504C6.02389 2.79653 6.19139 2.72995 6.36604 2.72995H15.1464C15.321 2.72995 15.4885 2.79653 15.612 2.91504C15.7355 3.03355 15.8049 3.19429 15.8049 3.36188C15.8049 3.52948 15.7355 3.69022 15.612 3.80873C15.4885 3.92724 15.321 3.99381 15.1464 3.99381Z" fill="#B48D4E"/>
</svg>
