<svg width="73" height="59" viewBox="0 0 73 59" fill="none" xmlns="http://www.w3.org/2000/svg">
<path d="M57.929 59C51.8065 59 47.1753 56.5026 44.0355 51.5079C41.3667 47.2936 40.0323 42.1429 40.0323 36.0556C40.0323 28.2513 41.9946 21.2275 45.9194 14.9841C50.0011 8.74075 56.1237 3.74604 64.2871 0L66.4064 4.21429C61.5398 6.24339 57.3011 9.44312 53.6903 13.8135C50.2366 18.1839 48.5097 22.6323 48.5097 27.1587C48.5097 29.0318 48.7452 30.6706 49.2161 32.0754C51.728 30.0463 54.6323 29.0317 57.929 29.0317C62.1677 29.0317 65.7 30.4365 68.5258 33.246C71.5086 35.8995 73 39.4894 73 44.0159C73 48.2302 71.5086 51.8201 68.5258 54.7857C65.7 57.5952 62.1677 59 57.929 59ZM17.8968 59C11.7742 59 7.14301 56.5026 4.00323 51.5079C1.33441 47.2936 0 42.1429 0 36.0556C0 28.2513 1.96237 21.2275 5.8871 14.9841C9.96882 8.74075 16.0914 3.74604 24.2548 0L26.3742 4.21429C21.5075 6.24339 17.2688 9.44312 13.6581 13.8135C10.2043 18.1839 8.47742 22.6323 8.47742 27.1587C8.47742 29.0318 8.7129 30.6706 9.18387 32.0754C11.6957 30.0463 14.6 29.0317 17.8968 29.0317C22.1355 29.0317 25.6677 30.4365 28.4935 33.246C31.4763 35.8995 32.9677 39.4894 32.9677 44.0159C32.9677 48.2302 31.4763 51.8201 28.4935 54.7857C25.6677 57.5952 22.1355 59 17.8968 59Z" fill="#B48D4E"/>
</svg>
