<svg width="26" height="26" viewBox="0 0 26 26" fill="none" xmlns="http://www.w3.org/2000/svg">
<path d="M23.7332 21.7968C23.7367 17.5051 23.7374 13.2127 23.7318 8.92093C23.7304 8.07778 23.3514 7.42207 22.6127 7.01791L21.4932 24.9974M23.7332 21.7968C23.7325 23.079 22.8009 23.9953 21.4915 23.9974L21.4932 24.9974M23.7332 21.7968L24.7332 21.7974M23.7332 21.7968L24.7332 21.7976C24.7321 23.6489 23.3359 24.9944 21.4932 24.9974M21.4932 24.9974L24.7332 21.7974M24.7332 21.7974C24.7367 17.5053 24.7374 13.2122 24.7318 8.91964L24.7318 8.91928M24.7332 21.7974L24.7318 8.91928M1 21.7794V21.7791C1.00052 20.1736 1.00046 18.5677 1.00039 16.9616C1.00028 14.2841 1.00017 11.6062 1.00279 8.92918L1 21.7794ZM1 21.7794C1 22.0661 1.02903 22.3764 1.12025 22.6971M1 21.7794L1.12025 22.6971M2.64967 6.12803L2.64977 6.12798C5.55324 4.54028 8.46124 2.96252 11.3722 1.38994L11.3725 1.38976C12.3345 0.870526 13.3864 0.869836 14.3476 1.38916L2.64967 6.12803ZM2.64967 6.12803C1.56844 6.71944 1.00382 7.72315 1.00279 8.92902L2.64967 6.12803ZM24.7318 8.91928C24.7298 7.7209 24.1598 6.72454 23.0928 6.14066C20.1823 4.54809 17.2667 2.96545 14.3479 1.3893L24.7318 8.91928ZM11.8461 24.9988V24.9981C11.3631 24.9982 10.8801 24.9983 10.397 24.9983C8.35778 24.9986 6.31795 24.9989 4.27797 24.9974L11.8461 24.9988ZM11.8461 24.9988H12.8461M11.8461 24.9988H12.8461M12.8461 24.9988C13.693 24.9988 14.5403 24.9991 15.3877 24.9994M12.8461 24.9988L15.3877 24.9994M1.12025 22.6971C1.52944 24.1414 2.78108 24.9964 4.27788 24.9974L1.12025 22.6971ZM15.3877 24.9994C17.4222 25.0001 19.4578 25.0008 21.4931 24.9974L15.3877 24.9994Z" stroke="#B48D4E" stroke-width="2"/>
<path d="M12.9214 22.0002C10.5201 21.9947 8.50698 20.3962 7.97739 18.112C7.87705 17.6806 7.9969 17.3336 8.31814 17.1239C8.60941 16.9336 8.98778 16.942 9.27557 17.1455C9.4881 17.2953 9.57033 17.5162 9.63583 17.7587C10.0142 19.1461 10.904 20.0108 12.3207 20.2833C13.9965 20.6059 15.6787 19.5293 16.1065 17.8785C16.2041 17.5022 16.3205 17.158 16.7399 17.0305C17.3852 16.834 17.9545 17.3692 17.8158 18.0416C17.42 19.9572 15.8529 21.5125 13.9352 21.8964C13.584 21.9668 13.2314 22.0107 12.9214 22.0002Z" fill="#B48D4E"/>
</svg>
