<svg width="109" height="89" viewBox="0 0 109 89" fill="none" xmlns="http://www.w3.org/2000/svg">
<path d="M22.65 0.299988C31.75 0.299988 38.6333 4.03333 43.3 11.5C47.2667 17.8 49.25 25.5 49.25 34.6C49.25 46.2667 46.3333 56.7667 40.5 66.1C34.4333 75.4333 25.3333 82.9 13.2 88.5L10.05 82.2C17.2833 79.1667 23.5833 74.3833 28.95 67.85C34.0833 61.3167 36.65 54.6667 36.65 47.9C36.65 45.1 36.3 42.65 35.6 40.55C31.8667 43.5833 27.55 45.1 22.65 45.1C16.35 45.1 11.1 43 6.89999 38.8C2.46666 34.8333 0.25 29.4667 0.25 22.7C0.25 16.4 2.46666 11.0333 6.89999 6.59999C11.1 2.39999 16.35 0.299988 22.65 0.299988ZM82.15 0.299988C91.25 0.299988 98.1333 4.03333 102.8 11.5C106.767 17.8 108.75 25.5 108.75 34.6C108.75 46.2667 105.833 56.7667 100 66.1C93.9333 75.4333 84.8333 82.9 72.7 88.5L69.55 82.2C76.7833 79.1667 83.0833 74.3833 88.45 67.85C93.5833 61.3167 96.15 54.6667 96.15 47.9C96.15 45.1 95.8 42.65 95.1 40.55C91.3667 43.5833 87.05 45.1 82.15 45.1C75.85 45.1 70.6 43 66.4 38.8C61.9667 34.8333 59.75 29.4667 59.75 22.7C59.75 16.4 61.9667 11.0333 66.4 6.59999C70.6 2.39999 75.85 0.299988 82.15 0.299988Z" fill="#FDF7EE"/>
</svg>
