<svg width="36" height="36" viewBox="0 0 36 36" fill="none" xmlns="http://www.w3.org/2000/svg">
<path d="M28.1046 35.9987C25.3132 35.969 22.6886 35.2071 20.2202 33.9889C12.2685 30.0651 6.26025 24.1316 2.22113 16.2368C0.935775 13.7236 0.0851501 11.0584 0.00574057 8.19928C-0.0615557 5.76286 0.44855 3.50009 2.29381 1.76229C3.41093 0.70965 4.69629 -0.083194 6.33293 0.00699377C7.50658 0.0716059 8.50122 0.560235 9.18495 1.4998C10.5497 3.37086 11.897 5.25942 13.1622 7.19779C14.2954 8.93424 13.823 11.2051 12.1729 12.4677C11.7072 12.8244 11.2308 13.1731 10.7301 13.48C10.3721 13.6994 10.3115 13.8501 10.578 14.2257C12.5053 16.9367 14.7355 19.3745 17.1609 21.6413C18.636 23.0197 20.1919 24.2971 21.842 25.4628C22.1314 25.6674 22.2593 25.6499 22.4477 25.3525C22.7882 24.814 23.1583 24.2917 23.5513 23.7896C24.8421 22.1367 27.1288 21.7113 28.8745 22.8716C30.748 24.1154 32.5892 25.4117 34.4049 26.7376C35.8989 27.8293 36.3861 29.7097 35.6849 31.422C34.6391 33.9782 32.6781 35.3727 30.0078 35.8533C29.3765 35.9663 28.7385 35.9838 28.1006 36L28.1046 35.9987Z" fill="#B48D4E"/>
</svg>
