<svg width="11" height="13" viewBox="0 0 11 13" fill="none" xmlns="http://www.w3.org/2000/svg">
<path d="M10.4062 6.5H8.47917V4.5C8.47917 4.36739 8.43856 4.24021 8.36628 4.14645C8.294 4.05268 8.19597 4 8.09375 4H2.69792C2.5957 4 2.49767 4.05268 2.42539 4.14645C2.35311 4.24021 2.3125 4.36739 2.3125 4.5V6.5H0.385417C0.283198 6.5 0.185166 6.55268 0.112886 6.64645C0.0406063 6.74021 0 6.86739 0 7V11C0 11.1326 0.0406063 11.2598 0.112886 11.3536C0.185166 11.4473 0.283198 11.5 0.385417 11.5H0.770833V12.5C0.770833 12.6326 0.81144 12.7598 0.883719 12.8536C0.955999 12.9473 1.05403 13 1.15625 13C1.25847 13 1.3565 12.9473 1.42878 12.8536C1.50106 12.7598 1.54167 12.6326 1.54167 12.5V11.5H9.25V12.5C9.25 12.6326 9.2906 12.7598 9.36288 12.8536C9.43516 12.9473 9.5332 13 9.63542 13C9.73763 13 9.83567 12.9473 9.90795 12.8536C9.98023 12.7598 10.0208 12.6326 10.0208 12.5V11.5H10.4062C10.5085 11.5 10.6065 11.4473 10.6788 11.3536C10.7511 11.2598 10.7917 11.1326 10.7917 11V7C10.7917 6.86739 10.7511 6.74021 10.6788 6.64645C10.6065 6.55268 10.5085 6.5 10.4062 6.5ZM7.70833 6.5H5.78125V5H7.70833V6.5ZM3.08333 5H5.01042V6.5H3.08333V5ZM10.0208 10.5H0.770833V7.5H10.0208V10.5Z" fill="#B48D4E"/>
<path d="M1.1569 6C1.25912 6 1.35715 5.94732 1.42943 5.85355C1.50171 5.75979 1.54232 5.63261 1.54232 5.5V1H9.25065V5.5C9.25065 5.63261 9.29126 5.75979 9.36354 5.85355C9.43582 5.94732 9.53385 6 9.63607 6C9.73829 6 9.83632 5.94732 9.9086 5.85355C9.98088 5.75979 10.0215 5.63261 10.0215 5.5V0.5C10.0215 0.367392 9.98088 0.240215 9.9086 0.146447C9.83632 0.0526784 9.73829 0 9.63607 0H1.1569C1.05468 0 0.95665 0.0526784 0.88437 0.146447C0.812091 0.240215 0.771484 0.367392 0.771484 0.5V5.5C0.771484 5.63261 0.812091 5.75979 0.88437 5.85355C0.95665 5.94732 1.05468 6 1.1569 6Z" fill="#B48D4E"/>
</svg>
