<svg width="23" height="23" viewBox="0 0 23 23" fill="none" xmlns="http://www.w3.org/2000/svg">
<path d="M15.352 3.21364C15.352 2.72635 15.3472 2.35759 15.352 1.98883C15.3627 1.32314 15.6837 0.989104 16.3388 0.983117C17.2657 0.974736 18.1939 0.973539 19.1208 0.983117C19.7448 0.990301 20.1173 1.37223 20.1185 2.0032C20.1233 3.69375 20.134 5.38311 20.1113 7.07367C20.1053 7.51067 20.2155 7.82915 20.5508 8.12248C21.2143 8.70316 21.8406 9.32574 22.4826 9.93156C22.9341 10.3578 23.1257 10.8642 22.9137 11.4701C22.6838 12.1286 22.1748 12.4207 21.5077 12.465C21.1951 12.4854 20.8777 12.4925 20.5664 12.465C20.2095 12.4339 20.1125 12.562 20.1149 12.9164C20.1292 15.3995 20.0813 17.8827 20.1388 20.3646C20.1712 21.7307 19.1544 23.0166 17.5029 22.9998C13.4789 22.9591 9.45371 22.9879 5.42973 22.9867C3.88361 22.9867 2.8836 21.981 2.8824 20.4281C2.8824 17.9306 2.87402 15.4331 2.89078 12.9355C2.89318 12.5572 2.783 12.4446 2.41174 12.4626C2.01173 12.4818 1.60694 12.5081 1.20454 12.4267C0.599747 12.3046 0.210523 11.943 0.0524375 11.3635C-0.0936714 10.8307 0.0715996 10.359 0.4728 9.97945C1.76622 8.75704 3.05845 7.53462 4.35546 6.31699C5.58781 5.16161 6.82734 4.01462 8.06328 2.86284C8.96029 2.02714 9.85371 1.18785 10.7531 0.354547C11.2645 -0.119575 11.7412 -0.118377 12.2561 0.359336C13.1771 1.21299 14.0921 2.07264 15.0106 2.92869C15.0861 2.99813 15.1675 3.06039 15.3508 3.21364H15.352Z" fill="#B48D4E"/>
<path d="M11.4774 13.7773C11.3551 14.9354 11.0271 16.0067 10.3166 16.9253C9.69063 17.7351 8.91568 18.3622 8.05511 18.877C7.66375 19.1119 7.27349 18.9985 7.08225 18.6375C6.90436 18.302 7.01777 17.9388 7.39579 17.6842C7.92058 17.3302 8.4298 16.9588 8.88121 16.503C9.07578 16.3075 9.07133 16.2045 8.88455 15.9974C8.11404 15.1401 7.75937 14.129 7.93837 12.9477C8.04177 12.2663 8.40534 11.7492 8.93013 11.3558C9.41378 10.9937 9.91522 10.6582 10.4078 10.3076C11.1293 9.79394 11.4718 9.07779 11.454 8.17076C11.4496 7.92549 11.4407 7.67906 11.4484 7.43379C11.454 7.24405 11.5518 7.10059 11.7231 7.03696C11.8865 6.97564 12.0533 6.98143 12.1856 7.12489C13.5821 8.62659 14.6694 10.3065 14.9441 12.4352C15.0997 13.6454 14.9563 14.7988 14.1847 15.7845C13.6076 16.5204 12.8538 16.9438 11.9543 17.093C11.8065 17.1173 11.6808 17.174 11.7197 16.9102C11.8787 15.8528 11.7153 14.8173 11.4762 13.7796L11.4774 13.7773Z" fill="#FAEEDC"/>
</svg>
