<svg width="35" height="34" viewBox="0 0 35 34" fill="none" xmlns="http://www.w3.org/2000/svg">
<path d="M34.0015 21.1616C33.7412 21.7363 33.2895 21.9267 32.6731 21.9002C31.8672 21.8656 31.0595 21.8869 30.2528 21.8957C30.0765 21.8975 30.0145 21.8621 30.0048 21.6673C29.7905 17.4659 27.8129 14.2175 24.5326 11.7113C22.037 9.80544 19.1862 8.76131 16.0715 8.41238C13.4413 8.11747 10.8713 8.38227 8.35524 9.19614C8.31362 9.20942 8.27023 9.21651 8.19141 9.23511C8.25074 8.71349 8.40484 8.23703 8.5793 7.76677C9.51273 5.25873 11.2361 3.42376 13.4926 2.05638C15.371 0.916603 17.423 0.286937 19.6042 0.0673061C19.6733 0.0602213 19.7645 0.100074 19.8044 0H22.1929C22.8473 0.0735054 23.5053 0.0859039 24.1554 0.22583C26.5013 0.732397 28.6117 1.70745 30.4272 3.29357C32.14 4.79113 33.3046 6.62523 33.8483 8.84367C33.9431 9.23068 33.9218 9.6292 34.0015 10.0162V11.8733C33.9413 12.7926 33.7252 13.6747 33.3736 14.5266C32.9583 15.5344 32.4119 16.4634 31.7069 17.2959C31.5759 17.4509 31.5564 17.5563 31.6972 17.7183C32.3711 18.4924 33.0265 19.2823 33.7084 20.0493C33.8634 20.2228 33.9254 20.4256 34.0006 20.6302V21.1607L34.0015 21.1616Z" fill="#B48D4E"/>
<path d="M0.0352239 33.2349C0.194633 33.5625 0.437289 33.8061 0.764964 33.9646C0.521422 33.9646 0.18312 34.0594 0.0617922 33.938C-0.059536 33.8167 0.0352239 33.4784 0.0352239 33.2349Z" fill="#F8F8F8"/>
<path fill-rule="evenodd" clip-rule="evenodd" d="M0.0351562 32.7047V33.2343C0.111318 33.6452 0.353975 33.8879 0.764896 33.964H15.9575C16.13 33.9271 16.3056 33.919 16.4812 33.911H16.4813C16.6338 33.904 16.7863 33.897 16.937 33.8711C18.5771 33.5886 20.1119 33.0165 21.5545 32.1911C23.757 30.9308 25.5672 29.2686 26.8053 27.0289C27.9805 24.9025 28.3958 22.6345 27.9495 20.2407C27.4544 17.5883 26.0463 15.4646 24.0262 13.7226C22.9821 12.8211 21.814 12.1117 20.5529 11.552C18.6178 10.693 16.5871 10.2723 14.4785 10.1961C13.6275 10.1651 12.779 10.2254 11.9342 10.3299C10.1284 10.553 8.41388 11.0862 6.78968 11.8983C5.35323 12.6165 4.08858 13.5685 2.98068 14.7366C2.03397 15.7347 1.28829 16.8612 0.74807 18.1223C0.341576 19.0717 0.0918351 20.0618 0.0351562 21.0962V23.0197C0.0701483 23.1784 0.0785944 23.3394 0.0870403 23.5005C0.094626 23.6452 0.102212 23.7899 0.129031 23.9328C0.492129 25.8643 1.29537 27.5877 2.57242 29.0844C2.72563 29.2641 2.73449 29.3855 2.57773 29.5635C2.40489 29.7601 2.23109 29.956 2.05729 30.1518C1.62998 30.6333 1.20268 31.1148 0.789693 31.6083C0.718328 31.6937 0.640098 31.7748 0.561728 31.856L0.561715 31.856C0.327907 32.0983 0.0928609 32.3419 0.0351562 32.7047ZM6.00597 21.8693C5.99712 22.9719 6.89246 23.8788 7.99062 23.8814C9.07637 23.8841 9.97615 22.9958 9.98589 21.9127C9.99475 20.8101 9.10028 19.9033 8.00036 19.9015C6.91283 19.8997 6.01483 20.7853 6.00597 21.8693ZM14.0454 19.9015C15.1435 19.9068 16.0354 20.8181 16.0221 21.9207C16.0088 23.0029 15.1055 23.8876 14.0188 23.8814C12.9216 23.8752 12.0298 22.9639 12.043 21.8614C12.0554 20.7783 12.957 19.8962 14.0454 19.9015ZM22.0593 21.9189C22.0726 20.8172 21.179 19.9068 20.0809 19.9015H20.08C18.9916 19.8962 18.0909 20.7791 18.0794 21.8622C18.0679 22.9648 18.9588 23.8752 20.057 23.8805C21.1436 23.8867 22.0469 23.0011 22.0593 21.9189Z" fill="#B48D4E"/>
</svg>
