<svg width="38" height="28" viewBox="0 0 38 28" fill="none" xmlns="http://www.w3.org/2000/svg">
<path d="M0.00109483 7.91553C2.31885 9.32567 4.6388 10.7336 6.95546 12.146C10.5147 14.317 14.0773 16.4848 17.6279 18.6711C18.5497 19.2383 19.4113 19.2262 20.331 18.6635C26.1084 15.1283 31.8946 11.6095 37.6775 8.08413C37.7607 8.03377 37.8461 7.98779 37.9468 7.93085C38.0235 8.04691 37.9851 8.17062 37.9851 8.28448C37.9873 12.9211 37.9884 17.5588 37.9862 22.1954C37.9851 25.539 35.5732 27.9871 32.2263 27.9925C23.4097 28.0046 14.593 27.9892 5.77742 28.0002C2.54329 28.0046 0.349251 25.6419 0.058026 23.1359C0.0547415 23.1052 0.0197069 23.0789 0 23.0505C0 18.0055 0 12.9605 0 7.91553H0.00109483Z" fill="#B48D4E"/>
<path d="M19.0187 0.00189414C23.4068 0.00189414 27.7949 -0.00357996 32.183 0.00408385C34.4186 0.00846317 36.1189 0.970819 37.2476 2.91195C37.4907 3.32908 37.7721 3.78782 37.7381 4.24765C37.6998 4.76222 37.0812 4.8301 36.709 5.05891C30.9086 8.62259 25.0961 12.1655 19.2913 15.7215C19.0756 15.8539 18.9377 15.8386 18.733 15.7138C12.6501 11.999 6.56284 8.28866 0.472295 4.58595C0.243476 4.4469 0.188734 4.32428 0.264278 4.05934C0.957305 1.61348 3.13821 0.00627328 5.81726 0.00298878C10.2174 -0.00139054 14.6186 0.00189414 19.0187 0.00189414Z" fill="#B48D4E"/>
</svg>
