<svg width="24" height="14" viewBox="0 0 24 14" fill="none" xmlns="http://www.w3.org/2000/svg">
<path d="M24 6.98671C24 7.25193 23.8946 7.50628 23.7071 7.69382C23.5196 7.88135 23.2652 7.98671 23 7.98671H3.414L7.706 12.2787C7.88816 12.4673 7.98895 12.7199 7.98667 12.9821C7.98439 13.2443 7.87923 13.4951 7.69382 13.6805C7.50841 13.8659 7.2576 13.9711 6.9954 13.9734C6.7332 13.9757 6.4806 13.8749 6.292 13.6927L0.292 7.69271C0.199469 7.60072 0.126034 7.49134 0.075922 7.37086C0.0258102 7.25039 9.53674e-06 7.12119 0 6.99071V6.98671C0 6.85671 0.0259991 6.72671 0.0779991 6.60471C0.12784 6.48348 0.201262 6.37335 0.294001 6.28071L6.294 0.280712C6.4826 0.0985537 6.7352 -0.00224062 6.9974 3.78026e-05C7.2596 0.00231622 7.51041 0.107485 7.69582 0.292893C7.88123 0.478301 7.98639 0.729114 7.98867 0.991311C7.99095 1.25351 7.89016 1.50611 7.708 1.69471L3.414 5.98671H23C23.2652 5.98671 23.5196 6.09207 23.7071 6.27961C23.8946 6.46714 24 6.7215 24 6.98671Z" fill="#B48D4E"/>
</svg>
