<svg width="19" height="17" viewBox="0 0 19 17" fill="none" xmlns="http://www.w3.org/2000/svg">
<path d="M17.6538 8.49994H14.3846V5.88456C14.3846 5.71115 14.3157 5.54484 14.1931 5.42222C14.0705 5.2996 13.9042 5.23071 13.7308 5.23071H4.57692C4.40351 5.23071 4.2372 5.2996 4.11458 5.42222C3.99196 5.54484 3.92308 5.71115 3.92308 5.88456V8.49994H0.653846C0.480435 8.49994 0.314127 8.56883 0.191507 8.69145C0.0688871 8.81407 0 8.98038 0 9.15379V14.3846C0 14.558 0.0688871 14.7243 0.191507 14.8469C0.314127 14.9695 0.480435 15.0384 0.653846 15.0384H1.30769V16.3461C1.30769 16.5195 1.37658 16.6858 1.4992 16.8084C1.62182 16.9311 1.78813 16.9999 1.96154 16.9999C2.13495 16.9999 2.30126 16.9311 2.42388 16.8084C2.5465 16.6858 2.61538 16.5195 2.61538 16.3461V15.0384H15.6923V16.3461C15.6923 16.5195 15.7612 16.6858 15.8838 16.8084C16.0064 16.9311 16.1727 16.9999 16.3462 16.9999C16.5196 16.9999 16.6859 16.9311 16.8085 16.8084C16.9311 16.6858 17 16.5195 17 16.3461V15.0384H17.6538C17.8273 15.0384 17.9936 14.9695 18.1162 14.8469C18.2388 14.7243 18.3077 14.558 18.3077 14.3846V9.15379C18.3077 8.98038 18.2388 8.81407 18.1162 8.69145C17.9936 8.56883 17.8273 8.49994 17.6538 8.49994ZM13.0769 8.49994H9.80769V6.53841H13.0769V8.49994ZM5.23077 6.53841H8.5V8.49994H5.23077V6.53841ZM17 13.7307H1.30769V9.80764H17V13.7307Z" fill="#B48D4E"/>
<path d="M1.96152 7.84615C2.13494 7.84615 2.30124 7.77727 2.42386 7.65465C2.54648 7.53203 2.61537 7.36572 2.61537 7.19231V1.30769H15.6923V7.19231C15.6923 7.36572 15.7612 7.53203 15.8838 7.65465C16.0064 7.77727 16.1727 7.84615 16.3461 7.84615C16.5196 7.84615 16.6859 7.77727 16.8085 7.65465C16.9311 7.53203 17 7.36572 17 7.19231V0.653846C17 0.480435 16.9311 0.314127 16.8085 0.191507C16.6859 0.0688871 16.5196 0 16.3461 0H1.96152C1.78811 0 1.62181 0.0688871 1.49919 0.191507C1.37657 0.314127 1.30768 0.480435 1.30768 0.653846V7.19231C1.30768 7.36572 1.37657 7.53203 1.49919 7.65465C1.62181 7.77727 1.78811 7.84615 1.96152 7.84615Z" fill="#B48D4E"/>
</svg>
