<svg width="47" height="47" viewBox="0 0 47 47" fill="none" xmlns="http://www.w3.org/2000/svg">
<path d="M23.2135 29.3741C23.2135 28.0838 23.2135 26.7935 23.2135 25.5033C23.2135 24.2178 23.3834 23.9367 24.5772 23.5186C27.7303 22.4158 30.8907 21.3321 34.051 20.2509C34.5462 20.0803 35.0414 20.1452 35.5414 20.3158C38.618 21.3706 41.6994 22.4037 44.7736 23.4609C45.9267 23.8574 46.1731 24.237 46.1731 25.448C46.1731 27.8171 46.166 30.1886 46.1731 32.5577C46.1851 35.8206 45.0463 38.6582 42.9674 41.1162C40.9482 43.4997 38.4888 45.3281 35.6922 46.7073C35.0175 47.0389 34.4266 47.0725 33.7424 46.7241C30.106 44.874 26.9672 42.4593 24.8691 38.872C23.7757 37.0027 23.2159 34.9676 23.2135 32.7907C23.2135 31.6518 23.2135 30.5105 23.2135 29.3717V29.3741Z" fill="#D1B484"/>
<path d="M5.56967 20.0917C6.21414 20.0917 6.81293 20.0869 7.41171 20.0917C9.01327 20.1061 9.66255 20.7375 9.66495 22.3243C9.67457 26.103 9.66736 29.8816 9.66977 33.6602C9.66977 35.2327 9.86455 35.4271 11.4132 35.4271C13.3057 35.4271 15.1983 35.4223 17.0908 35.4271C18.4279 35.4319 19.3344 36.2409 19.3056 37.3813C19.2767 38.5024 18.4278 39.2346 17.1052 39.2394C14.9722 39.249 12.8392 39.2586 10.7062 39.237C7.87101 39.2081 5.85343 37.1604 5.84381 34.3204C5.83419 31.1107 5.82458 27.9011 5.85584 24.6938C5.86065 24.0672 5.69953 23.8392 5.05746 23.892C4.40097 23.9472 3.73726 23.9016 3.07595 23.904C1.76296 23.9064 0.837134 23.2846 0.300876 22.1179C-0.199312 21.0328 0.060401 19.8349 1.00547 18.9082C5.35806 14.6423 9.72267 10.3907 14.0825 6.13434C15.6071 4.64593 17.1293 3.15273 18.6611 1.67153C19.7913 0.579228 20.7412 0.572025 21.8666 1.66192C24.0021 3.72889 26.123 5.80785 28.2536 7.88202C28.422 8.04526 28.5999 8.1965 28.9246 8.49178C28.9246 7.12101 28.9077 5.91108 28.9294 4.70355C28.9462 3.7937 29.432 3.17433 30.2832 2.88626C31.0864 2.61498 31.957 2.94867 32.4307 3.62806C32.7241 4.04817 32.7457 4.5211 32.7457 5.00363C32.7433 7.1042 32.7698 9.20238 32.7313 11.3005C32.7193 11.9799 32.8539 12.5129 33.407 12.945C33.8663 13.3051 34.1573 13.7828 34.1837 14.4046C34.215 15.168 33.9216 15.7658 33.2723 16.1379C32.599 16.5244 31.8896 16.5244 31.2283 16.085C30.9566 15.905 30.7209 15.6649 30.4852 15.4345C27.2605 12.292 24.0357 9.14956 20.8254 5.9927C20.4502 5.623 20.2242 5.48136 19.7601 5.93989C15.1598 10.4675 10.5331 14.9639 5.91596 19.4748C5.77408 19.6116 5.56486 19.7172 5.57448 20.0821L5.56967 20.0917Z" fill="#B48D4E"/>
<path d="M41.2885 29.645C41.3648 30.2914 40.928 30.7768 40.5485 31.2695C39.0327 33.2303 37.5002 35.1768 35.9748 37.1305C34.8959 38.5122 33.8098 38.5891 32.4921 37.402C31.5612 36.5633 30.5849 35.7751 29.6682 34.9221C28.7206 34.0402 28.6609 33.0068 29.4462 32.1634C30.2292 31.3223 31.2986 31.3055 32.2319 32.0985C32.7714 32.5575 33.3395 33.3505 33.879 33.3361C34.4638 33.3192 34.8147 32.358 35.254 31.7981C36.1228 30.6951 36.9703 29.5777 37.8439 28.4795C38.4383 27.7322 39.2571 27.4967 40.0639 27.7923C40.8445 28.0782 41.2908 28.7318 41.2861 29.645H41.2885Z" fill="#FAEEDC"/>
</svg>
