<svg width="40" height="40" viewBox="0 0 40 40" fill="none" xmlns="http://www.w3.org/2000/svg">
<path d="M15.9443 39.499C11.4764 39.499 7.00851 39.499 2.54062 39.499C1.08384 39.499 0.502749 38.922 0.500717 37.4774C0.500717 28.7448 0.500717 20.0102 0.500717 11.2776C0.500717 9.49571 1.41095 8.29086 3.15625 7.8845C3.6581 7.76666 3.72312 7.54723 3.72718 7.11649C3.7475 4.82668 4.87108 3.72545 7.16089 3.72139C8.07925 3.71868 8.5574 3.26017 8.59533 2.34587C8.64002 1.24668 9.28613 0.519305 10.2268 0.505083C11.196 0.49086 11.8645 1.23652 11.9031 2.37838C11.9342 3.27372 12.3975 3.72207 13.2928 3.72342C15.6659 3.72342 16.7773 4.83887 16.7773 7.21808C16.7773 7.87841 16.7875 8.53874 16.7753 9.19906C16.7529 10.3816 16.1088 11.0297 14.9304 11.0317C11.4784 11.0399 8.02439 11.05 4.5724 11.0216C3.91207 11.0155 3.70077 11.1922 3.7028 11.8749C3.72515 19.7196 3.72718 27.5643 3.7028 35.409C3.70077 36.1303 3.93036 36.3538 4.6171 36.2928C5.17178 36.2441 5.73458 36.2542 6.29129 36.2928C6.85206 36.3294 7.05117 36.1262 7.03898 35.5553C7.00851 34.0843 7.02273 32.6113 7.03289 31.1382C7.03898 30.1833 7.46566 29.7647 8.43685 29.7566C9.6295 29.7464 10.8242 29.7485 12.0168 29.7566C13.0348 29.7627 13.4594 30.1751 13.4655 31.1788C13.4757 32.6519 13.4879 34.1249 13.4594 35.5959C13.4492 36.1344 13.6484 36.3192 14.1705 36.2928C14.778 36.2603 15.3916 36.2461 15.9971 36.2969C16.6716 36.3538 16.7915 36.0409 16.7895 35.4476C16.7692 31.4369 16.7875 27.4262 16.7732 23.4134C16.7712 22.7835 16.9277 22.2593 17.4498 21.8875C17.97 21.5177 18.5287 21.473 19.0996 21.7676C19.699 22.0765 19.9895 22.5905 19.9956 23.2488C20.0078 24.9494 19.9997 26.65 19.9997 28.3506C19.9997 30.7115 20.0322 33.0725 19.9814 35.4334C19.9652 36.1689 20.2151 36.3436 20.8856 36.2969C21.619 36.2441 22.3586 36.2664 23.0941 36.2908C23.5248 36.305 23.6935 36.1506 23.663 35.7199C23.6366 35.342 23.6406 34.958 23.661 34.578C23.7138 33.5642 23.6488 32.7474 22.6593 31.9855C21.1781 30.8456 21.3346 28.4888 22.7284 27.3002C24.1201 26.1136 26.3409 26.3127 27.4218 27.7228C28.5941 29.2487 28.2528 31.4409 26.6274 32.4467C26.1824 32.721 26.0666 33.0115 26.0849 33.4809C26.1154 34.2164 26.1174 34.9539 26.0849 35.6894C26.0646 36.1648 26.2434 36.3071 26.7005 36.2928C27.6636 36.2664 28.6307 36.2786 29.5938 36.2888C30.6259 36.2989 31.3919 36.9755 31.3899 37.8532C31.3858 38.8102 30.6442 39.501 29.5755 39.501C25.0304 39.5071 20.4873 39.503 15.9422 39.503L15.9443 39.499Z" fill="#B48D4E"/>
<path d="M28.9073 23.202C23.3504 23.2873 18.3888 18.8316 18.3624 12.6997C18.338 6.68566 23.257 2.15479 28.9541 2.1426C34.6105 2.13041 39.564 6.83195 39.497 12.8216C39.4319 18.5756 34.643 23.3239 28.9073 23.202Z" fill="#D1B484"/>
<path d="M10.2005 15.1236C9.56866 15.1236 8.93475 15.1378 8.30286 15.1195C7.50641 15.0972 7.04113 14.6421 7.03503 13.9187C7.02894 13.1893 7.49015 12.7058 8.27442 12.6915C9.58898 12.6692 10.9056 12.6712 12.2201 12.6915C12.9942 12.7037 13.4697 13.2076 13.4595 13.9269C13.4473 14.636 12.9617 15.0992 12.1734 15.1195C11.5151 15.1358 10.8588 15.1236 10.2005 15.1236Z" fill="#B48D4E"/>
<path d="M10.2433 19.9979C9.61137 19.9979 8.97746 20.0101 8.34557 19.9959C7.50035 19.9756 7.02695 19.5204 7.03508 18.7605C7.0432 18.0372 7.50848 17.5781 8.30697 17.5679C9.59715 17.5496 10.8873 17.5516 12.1775 17.5679C12.9638 17.5781 13.4494 18.0515 13.4575 18.7626C13.4677 19.5042 12.9699 19.9796 12.1389 19.9979C11.507 20.0121 10.8731 19.9999 10.2412 19.9999L10.2433 19.9979Z" fill="#B48D4E"/>
<path d="M10.2574 22.4382C10.9157 22.4382 11.574 22.4199 12.2302 22.4423C12.9982 22.4687 13.4757 22.9705 13.4595 23.6877C13.4452 24.3684 12.9759 24.854 12.2404 24.8662C10.8994 24.8885 9.55844 24.8905 8.21747 24.8641C7.48603 24.8499 7.037 24.3521 7.03497 23.6593C7.03497 22.9664 7.47993 22.4768 8.20731 22.4443C8.88999 22.4138 9.57267 22.4382 10.2553 22.4382H10.2574Z" fill="#B48D4E"/>
<path d="M34.8782 14.3556C33.5941 14.3556 32.9521 13.7074 32.9521 12.4112C32.9521 11.4806 33.4221 11.0153 34.3621 11.0153C35.0204 11.0153 35.6787 11.0296 36.337 11.0092C36.6987 10.9991 36.9181 11.0986 36.9466 11.4928C36.9588 11.6675 37.038 11.8362 37.0522 12.0089C37.2412 14.2093 37.1071 14.3535 34.8782 14.3535V14.3556Z" fill="#FAEEDC"/>
<path d="M22.9683 11.0175C24.2388 11.0175 24.8741 11.646 24.8741 12.903C24.8741 13.8728 24.3987 14.3577 23.4478 14.3577C22.7895 14.3577 22.1332 14.3537 21.4749 14.3577C21.1742 14.3577 20.9385 14.3374 20.9081 13.9351C20.8451 13.1102 20.7232 12.2934 20.8979 11.4584C20.9751 11.0886 21.1316 11.0094 21.4506 11.0155C21.9565 11.0256 22.4624 11.0175 22.9683 11.0175Z" fill="#FAEEDC"/>
<path d="M30.5163 6.63508C30.5163 8.57949 30.5163 8.58762 28.5861 8.57543C27.1191 8.5673 27.3304 8.76845 27.3121 7.27306C27.304 6.66556 27.3447 6.05602 27.302 5.45055C27.2553 4.79632 27.5681 4.59314 28.1553 4.60736C28.712 4.62159 29.2708 4.62768 29.8255 4.60736C30.3598 4.58705 30.5508 4.83289 30.5224 5.34287C30.498 5.77157 30.5183 6.20434 30.5183 6.63305L30.5163 6.63508Z" fill="#FAEEDC"/>
<path d="M30.5166 18.7443C30.5166 20.0988 29.8285 20.7713 28.4523 20.7619C27.3206 20.7537 27.3125 20.7456 27.3104 19.6119C27.3104 18.852 27.3226 18.0921 27.3064 17.3342C27.2982 16.9523 27.4323 16.7796 27.8326 16.7918C28.5417 16.81 29.2508 16.8141 29.9578 16.7918C30.3967 16.7775 30.5389 16.9665 30.5186 17.381C30.4963 17.8361 30.5146 18.2912 30.5146 18.7484L30.5166 18.7443Z" fill="#FAEEDC"/>
<path d="M27.3103 12.6857C27.3103 11.5736 27.8698 11.0176 28.9886 11.0176C30.0072 11.0176 30.5165 11.5242 30.5165 12.5374C30.5165 13.751 29.9049 14.3578 28.6818 14.3578C27.7675 14.3578 27.3103 13.8004 27.3103 12.6857Z" fill="#FAEEDC"/>
<path d="M32.9542 5.67195C34.1103 6.37292 34.9393 7.16531 35.6077 8.13041C35.7987 8.40876 35.7987 8.59162 35.3781 8.58146C34.7178 8.56724 34.0575 8.5713 33.3972 8.5774C33.068 8.58146 32.9481 8.42095 32.9522 8.10806C32.9583 7.3502 32.9542 6.59032 32.9542 5.66992V5.67195Z" fill="#FAEEDC"/>
<path d="M32.9549 19.7236C32.9549 18.7828 32.963 18.025 32.9508 17.2692C32.9447 16.8974 33.1276 16.7856 33.4689 16.7917C34.1028 16.8039 34.7388 16.8039 35.3727 16.7917C35.779 16.7815 35.8115 16.9461 35.6145 17.2387C34.9541 18.2139 34.0988 18.982 32.9569 19.7256L32.9549 19.7236Z" fill="#FAEEDC"/>
<path d="M24.8718 5.7085C24.8718 6.59232 24.8677 7.34814 24.8738 8.10396C24.8758 8.4067 24.7763 8.58346 24.441 8.5794C23.6669 8.5733 22.8928 8.57737 22.0293 8.57737C22.6876 7.29735 23.6283 6.46432 24.8738 5.7085H24.8718Z" fill="#FAEEDC"/>
<path d="M24.801 19.6018C23.6063 18.9557 22.7448 18.0292 21.9992 16.8488C22.2145 16.8203 22.31 16.798 22.4035 16.7959C25.0712 16.7106 25.1647 16.8183 24.801 19.6018Z" fill="#FAEEDC"/>
</svg>
