<svg width="27" height="27" viewBox="0 0 27 27" fill="none" xmlns="http://www.w3.org/2000/svg">
<path d="M13.6235 16.6004C13.6235 15.856 13.6235 15.1116 13.6235 14.3672C13.6235 13.6256 13.7215 13.4634 14.4102 13.2222C16.2294 12.586 18.0526 11.9608 19.8759 11.337C20.1616 11.2386 20.4473 11.276 20.7358 11.3744C22.5107 11.983 24.2884 12.579 26.062 13.189C26.7273 13.4177 26.8694 13.6367 26.8694 14.3353C26.8694 15.7021 26.8653 17.0703 26.8694 18.4371C26.8763 20.3195 26.2194 21.9566 25.0199 23.3747C23.855 24.7498 22.4362 25.8046 20.8227 26.6003C20.4335 26.7916 20.0926 26.811 19.6978 26.61C17.5999 25.5427 15.7891 24.1495 14.5786 22.08C13.9479 21.0015 13.6249 19.8274 13.6235 18.5715C13.6235 17.9145 13.6235 17.256 13.6235 16.599V16.6004Z" fill="#D1B484"/>
<path d="M3.44404 11.2452C3.81585 11.2452 4.1613 11.2425 4.50675 11.2452C5.43073 11.2536 5.80531 11.6178 5.8067 12.5333C5.81225 14.7133 5.80809 16.8932 5.80947 19.0732C5.80947 19.9804 5.92185 20.0926 6.8153 20.0926C7.90715 20.0926 8.999 20.0898 10.0908 20.0926C10.8622 20.0953 11.3852 20.5621 11.3686 21.22C11.3519 21.8668 10.8622 22.2892 10.0992 22.2919C8.86859 22.2975 7.638 22.303 6.40742 22.2906C4.77173 22.2739 3.60774 21.0925 3.60219 19.4541C3.59664 17.6024 3.5911 15.7506 3.60913 13.9003C3.61191 13.5388 3.51895 13.4072 3.14853 13.4377C2.76978 13.4695 2.38687 13.4432 2.00535 13.4446C1.24785 13.446 0.713725 13.0873 0.404345 12.4142C0.115775 11.7882 0.26561 11.0971 0.810839 10.5624C3.32195 8.10131 5.83999 5.64849 8.35527 3.1929C9.23485 2.3342 10.113 1.47274 10.9968 0.618197C11.6488 -0.0119747 12.1968 -0.0161298 12.8461 0.612657C14.0781 1.80514 15.3017 3.00454 16.5309 4.20117C16.6281 4.29535 16.7307 4.38261 16.918 4.55296C16.918 3.76213 16.9083 3.06409 16.9208 2.36744C16.9305 1.84253 17.2107 1.4852 17.7019 1.319C18.1652 1.1625 18.6675 1.35501 18.9408 1.74697C19.11 1.98934 19.1225 2.26218 19.1225 2.54057C19.1211 3.75243 19.1364 4.96292 19.1142 6.1734C19.1073 6.56536 19.1849 6.87282 19.504 7.12212C19.769 7.32987 19.9369 7.60548 19.9522 7.9642C19.9702 8.40462 19.8009 8.74949 19.4263 8.96416C19.0379 9.18715 18.6286 9.18715 18.2471 8.93369C18.0903 8.82982 17.9544 8.69132 17.8184 8.55836C15.958 6.7454 14.0975 4.93245 12.2454 3.11118C12.029 2.89789 11.8986 2.81618 11.6308 3.08071C8.9768 5.69281 6.30753 8.2869 3.64381 10.8893C3.56196 10.9682 3.44126 11.0292 3.44681 11.2397L3.44404 11.2452Z" fill="#B48D4E"/>
<path d="M24.0505 16.7568C24.0946 17.1297 23.8426 17.4097 23.6236 17.694C22.7491 18.8252 21.865 19.9482 20.985 21.0753C20.3625 21.8725 19.7359 21.9168 18.9757 21.232C18.4386 20.7481 17.8754 20.2934 17.3465 19.8012C16.7998 19.2924 16.7654 18.6963 17.2184 18.2097C17.6702 17.7245 18.2871 17.7147 18.8256 18.1722C19.1368 18.437 19.4646 18.8945 19.7758 18.8862C20.1132 18.8765 20.3157 18.322 20.5691 17.999C21.0703 17.3626 21.5592 16.7179 22.0633 16.0844C22.4062 15.6532 22.8785 15.5174 23.344 15.6879C23.7944 15.8529 24.0519 16.2299 24.0491 16.7568H24.0505Z" fill="#FAEEDC"/>
</svg>
