<svg width="24" height="24" viewBox="0 0 24 24" fill="none" xmlns="http://www.w3.org/2000/svg">
<path d="M15.818 3.58467C15.818 3.20525 15.8108 2.82343 15.8192 2.44161C15.8336 1.81921 16.1759 1.46851 16.7959 1.46133C17.7235 1.45056 18.6499 1.45056 19.5775 1.46133C20.2299 1.46971 20.5877 1.84554 20.5889 2.51462C20.5937 4.2346 20.6045 5.95459 20.5806 7.67457C20.5746 8.06117 20.7015 8.31253 20.9767 8.5579C21.6339 9.14678 22.273 9.75482 22.9098 10.3653C23.4508 10.8835 23.6028 11.4461 23.3586 12.0194C23.0785 12.6765 22.5471 12.9362 21.8577 12.947C21.4567 12.953 20.9349 12.7794 20.6847 13.014C20.4082 13.2738 20.5973 13.8064 20.5961 14.2194C20.5854 16.448 20.5925 18.6755 20.5901 20.9042C20.5901 22.4494 19.5811 23.4608 18.0395 23.462C14.0011 23.4632 9.96384 23.4632 5.92542 23.462C4.35984 23.462 3.36041 22.4518 3.36041 20.8731C3.36041 18.3751 3.35203 15.8783 3.36878 13.3803C3.37118 13.0176 3.26106 12.9087 2.91515 12.9386C2.60395 12.965 2.28676 12.9542 1.97317 12.941C1.31606 12.9123 0.822926 12.6155 0.583541 11.9907C0.348943 11.3767 0.527285 10.8464 0.996479 10.4059C2.72963 8.77933 4.46397 7.15151 6.19951 5.52848C7.78304 4.04788 9.37256 2.57327 10.9537 1.09028C11.8167 0.28116 12.1339 0.276372 12.9825 1.07712C13.8096 1.85631 14.6414 2.62953 15.4757 3.40154C15.5571 3.47695 15.6145 3.60143 15.8168 3.58587L15.818 3.58467Z" fill="#B48D4E"/>
<path d="M13.157 16.1724C13.3749 15.8146 13.5436 15.5357 13.7136 15.2568C13.8836 14.9791 14.1254 14.8427 14.4569 14.8451C15.2792 14.851 16.1003 14.8415 16.9226 14.8486C17.4085 14.8534 17.7221 15.1503 17.7161 15.5728C17.7101 15.9929 17.3965 16.2742 16.9046 16.2802C16.3373 16.2874 15.7675 16.3029 15.2014 16.2742C14.8686 16.2574 14.6903 16.3819 14.5359 16.662C14.2498 17.1862 13.9231 17.6866 13.6238 18.2036C13.4527 18.4981 13.2217 18.7039 12.871 18.6692C12.5047 18.6333 12.3108 18.3892 12.2043 18.0373C11.7614 16.571 11.3018 15.1108 10.817 13.544C10.4711 14.1449 10.1528 14.6571 9.87627 15.191C9.64167 15.6434 9.30533 15.8433 8.79664 15.8217C8.2293 15.799 7.66076 15.8217 7.09342 15.8146C6.58233 15.8074 6.24001 15.5165 6.23043 15.0988C6.22086 14.6679 6.54403 14.3926 7.07187 14.3818C7.08623 14.3818 7.10179 14.3795 7.11616 14.3818C8.30111 14.6284 9.0456 14.1616 9.46572 13.0293C9.66082 12.5051 10.0211 12.0431 10.294 11.5451C10.4723 11.2196 10.7033 10.9766 11.1007 11.0269C11.4957 11.0771 11.6585 11.3716 11.765 11.7247C12.1815 13.094 12.6076 14.4608 13.0314 15.8277C13.0565 15.9103 13.0888 15.9917 13.1534 16.1736L13.157 16.1724Z" fill="#FDF7EE"/>
</svg>
