<svg width="96" height="96" viewBox="0 0 96 96" fill="none" xmlns="http://www.w3.org/2000/svg">
<rect width="96" height="96" rx="48" fill="white" fill-opacity="0.25"/>
<rect x="12" y="12" width="72" height="72" rx="36" fill="white"/>
<path d="M41.3333 37C40.4493 37 39.6014 37.3462 38.9763 37.9624C38.3512 38.5786 38 39.4143 38 40.2857V56.7143C38 57.5857 38.3512 58.4214 38.9763 59.0376C39.6014 59.6538 40.4493 60 41.3333 60C42.2174 60 43.0652 59.6538 43.6904 59.0376C44.3155 58.4214 44.6667 57.5857 44.6667 56.7143V40.2857C44.6667 39.4143 44.3155 38.5786 43.6904 37.9624C43.0652 37.3462 42.2174 37 41.3333 37V37ZM54.6667 37C53.7826 37 52.9348 37.3462 52.3096 37.9624C51.6845 38.5786 51.3333 39.4143 51.3333 40.2857V56.7143C51.3333 57.5857 51.6845 58.4214 52.3096 59.0376C52.9348 59.6538 53.7826 60 54.6667 60C55.5507 60 56.3986 59.6538 57.0237 59.0376C57.6488 58.4214 58 57.5857 58 56.7143V40.2857C58 39.4143 57.6488 38.5786 57.0237 37.9624C56.3986 37.3462 55.5507 37 54.6667 37V37Z" fill="#B48D4E"/>
</svg>
